<svg version="1.1" xmlns="http://www.w3.org/2000/svg" viewBox="0 0 727.7907933702863 660.5781017517899" width="727.7907933702863" height="660.5781017517899">
  <!-- svg-source:excalidraw -->
  
  <defs>
    <style>
      @font-face {
        font-family: "Virgil";
        src: url("https://excalidraw.com/Virgil.woff2");
      }
      @font-face {
        font-family: "Cascadia";
        src: url("https://excalidraw.com/Cascadia.woff2");
      }
    </style>
  </defs>
  <rect x="0" y="0" width="727.7907933702863" height="660.5781017517899" fill="#ffffff"></rect><g stroke-linecap="round" transform="translate(278.73486630846287 246.41541127682774) rotate(0 32.230576182478444 32.199712367130076)"><path d="M0 0 C0 0, 0 0, 0 0 M0 0 C0 0, 0 0, 0 0 M0.13 12.04 C2.42 9.41, 4.72 6.77, 10.63 -0.03 M0.13 12.04 C3.42 8.26, 6.7 4.48, 10.63 -0.03 M0.27 24.08 C4.68 19, 9.09 13.93, 21.26 -0.07 M0.27 24.08 C7.91 15.29, 15.55 6.5, 21.26 -0.07 M-0.26 36.88 C9.88 25.21, 20.02 13.55, 31.89 -0.1 M-0.26 36.88 C7.09 28.42, 14.44 19.97, 31.89 -0.1 M-0.12 48.92 C14.78 31.78, 29.68 14.64, 42.52 -0.14 M-0.12 48.92 C10.59 36.6, 21.29 24.28, 42.52 -0.14 M0.01 60.96 C17.87 40.41, 35.73 19.86, 53.15 -0.17 M0.01 60.96 C13.9 44.98, 27.8 28.99, 53.15 -0.17 M4.08 68.47 C17.22 53.36, 30.35 38.25, 63.78 -0.21 M4.08 68.47 C19.75 50.45, 35.42 32.42, 63.78 -0.21 M14.71 68.44 C35.59 44.41, 56.48 20.39, 69.82 5.04 M14.71 68.44 C32.22 48.3, 49.72 28.16, 69.82 5.04 M25.34 68.4 C40.34 51.14, 55.34 33.89, 69.95 17.08 M25.34 68.4 C35.98 56.16, 46.62 43.92, 69.95 17.08 M35.97 68.37 C45.31 57.63, 54.64 46.89, 70.08 29.12 M35.97 68.37 C45.25 57.69, 54.54 47.01, 70.08 29.12 M46.6 68.33 C54.71 59, 62.83 49.67, 70.22 41.16 M46.6 68.33 C55.78 57.78, 64.96 47.22, 70.22 41.16 M57.23 68.3 C61.98 62.83, 66.74 57.36, 69.69 53.96 M57.23 68.3 C61.82 63.01, 66.42 57.73, 69.69 53.96 M-0.19 64.24 C-0.19 64.24, -0.19 64.24, -0.19 64.24 M-0.19 64.24 C-0.19 64.24, -0.19 64.24, -0.19 64.24 M11.85 64.1 C7.09 59.96, 2.33 55.83, -0.22 53.61 M11.85 64.1 C9.2 61.8, 6.56 59.5, -0.22 53.61 M24.65 64.63 C17.95 58.8, 11.25 52.98, -0.26 42.98 M24.65 64.63 C17.39 58.31, 10.12 52, -0.26 42.98 M36.69 64.49 C24.27 53.69, 11.85 42.9, -0.29 32.35 M36.69 64.49 C29.09 57.89, 21.49 51.28, -0.29 32.35 M48.73 64.36 C32.34 50.11, 15.94 35.86, -0.33 21.72 M48.73 64.36 C33.68 51.27, 18.62 38.19, -0.33 21.72 M60.77 64.23 C38.7 45.04, 16.63 25.85, -0.36 11.09 M60.77 64.23 C43.83 49.5, 26.89 34.78, -0.36 11.09 M68.28 60.16 C42.16 37.45, 16.04 14.74, 0.36 1.11 M68.28 60.16 C53.29 47.13, 38.3 34.09, 0.36 1.11 M68.25 49.53 C45.69 29.92, 23.13 10.31, 4.85 -5.58 M68.25 49.53 C45.89 30.09, 23.53 10.65, 4.85 -5.58 M68.21 38.9 C51.7 24.54, 35.19 10.19, 16.89 -5.72 M68.21 38.9 C53.53 26.13, 38.84 13.36, 16.89 -5.72 M68.18 28.27 C54.94 16.75, 41.69 5.24, 28.93 -5.85 M68.18 28.27 C55.63 17.36, 43.08 6.45, 28.93 -5.85 M68.15 17.64 C58.14 8.94, 48.14 0.25, 41.73 -5.33 M68.15 17.64 C59.56 10.17, 50.97 2.71, 41.73 -5.33 M68.11 7.01 C64.46 3.83, 60.81 0.66, 53.77 -5.46 M68.11 7.01 C64.75 4.08, 61.39 1.16, 53.77 -5.46" stroke="#ced4da" stroke-width="1" fill="none"></path><path d="M0 0 C13.44 0, 26.87 0, 64.46 0 M0 0 C24.09 0, 48.18 0, 64.46 0 M64.46 0 C64.46 16.54, 64.46 33.08, 64.46 64.4 M64.46 0 C64.46 16.26, 64.46 32.52, 64.46 64.4 M64.46 64.4 C43.46 64.4, 22.46 64.4, 0 64.4 M64.46 64.4 C48.74 64.4, 33.01 64.4, 0 64.4 M0 64.4 C0 46.53, 0 28.67, 0 0 M0 64.4 C0 40.11, 0 15.82, 0 0" stroke="#000000" stroke-width="2" fill="none"></path></g><g stroke-linecap="round"><g transform="translate(293.87733038678516 281.7693579375077) rotate(0 17.45946323602402 3.1611366035068613)" fill-rule="evenodd"><path d="M0 0 L31.42 -0.67 L32.87 -1.35 L31.55 -6.47 L32.31 -9.51 L33.65 -11.34 L36.89 -6.8 L36.45 -3.14 L41.67 -6.72 L44.19 -6.4 L45.75 -5.22 L43.33 -1.94 L37.99 0.58 L28.44 11.96 L24.06 14.93 L11.93 17.54 L5.47 17.55 L0.17 16.44 L-3.92 13.47 L-7.3 8.98 L-10.87 1.11 L-10.24 -0.32 L-0.29 -0.02" stroke="none" stroke-width="0" fill="#0091e2" fill-rule="evenodd"></path><path d="M0 0 C4.42 -0.09, 21.02 -0.33, 26.5 -0.56 C31.98 -0.78, 32.03 -0.37, 32.87 -1.35 C33.71 -2.34, 31.42 -4.81, 31.55 -6.47 C31.68 -8.14, 32.76 -11.29, 33.65 -11.34 C34.54 -11.39, 36.42 -8.16, 36.89 -6.8 C37.35 -5.43, 35.65 -3.16, 36.45 -3.14 C37.25 -3.13, 40.12 -6.37, 41.67 -6.72 C43.22 -7.06, 45.48 -6.02, 45.75 -5.22 C46.03 -4.43, 44.62 -2.91, 43.33 -1.94 C42.03 -0.97, 41.2 -2.23, 37.99 0.58 C34.78 3.4, 30.36 12.28, 24.06 14.93 C17.75 17.57, 5.99 18.74, 0.17 16.44 C-5.65 14.14, -10.24 3.95, -10.87 1.11 C-11.49 -1.72, -5.35 -0.41, -3.58 -0.6 C-1.82 -0.79, -0.84 -0.12, -0.29 -0.02 M0 0 C4.42 -0.09, 21.02 -0.33, 26.5 -0.56 C31.98 -0.78, 32.03 -0.37, 32.87 -1.35 C33.71 -2.34, 31.42 -4.81, 31.55 -6.47 C31.68 -8.14, 32.76 -11.29, 33.65 -11.34 C34.54 -11.39, 36.42 -8.16, 36.89 -6.8 C37.35 -5.43, 35.65 -3.16, 36.45 -3.14 C37.25 -3.13, 40.12 -6.37, 41.67 -6.72 C43.22 -7.06, 45.48 -6.02, 45.75 -5.22 C46.03 -4.43, 44.62 -2.91, 43.33 -1.94 C42.03 -0.97, 41.2 -2.23, 37.99 0.58 C34.78 3.4, 30.36 12.28, 24.06 14.93 C17.75 17.57, 5.99 18.74, 0.17 16.44 C-5.65 14.14, -10.24 3.95, -10.87 1.11 C-11.49 -1.72, -5.35 -0.41, -3.58 -0.6 C-1.82 -0.79, -0.84 -0.12, -0.29 -0.02" stroke="#0091e2" stroke-width="2" fill="none"></path></g></g><g stroke-linecap="round" transform="translate(287.59237169975563 273.95711996474256) rotate(0 2.783176247164988 2.783176247165045)"><path d="M0 0 L5.57 0 L5.57 5.57 L0 5.57" stroke="none" stroke-width="0" fill="#0091e2"></path><path d="M0 0 C2.18 0, 4.37 0, 5.57 0 M0 0 C1.56 0, 3.12 0, 5.57 0 M5.57 0 C5.57 1.97, 5.57 3.94, 5.57 5.57 M5.57 0 C5.57 2.02, 5.57 4.04, 5.57 5.57 M5.57 5.57 C4.03 5.57, 2.49 5.57, 0 5.57 M5.57 5.57 C3.81 5.57, 2.06 5.57, 0 5.57 M0 5.57 C0 3.84, 0 2.11, 0 0 M0 5.57 C0 3.56, 0 1.55, 0 0" stroke="#0091e2" stroke-width="2" fill="none"></path></g><g stroke-linecap="round" transform="translate(294.55031037122353 273.7019996602735) rotate(0 2.783176247164988 2.783176247165045)"><path d="M0 0 L5.57 0 L5.57 5.57 L0 5.57" stroke="none" stroke-width="0" fill="#0091e2"></path><path d="M0 0 C1.82 0, 3.65 0, 5.57 0 M0 0 C1.24 0, 2.47 0, 5.57 0 M5.57 0 C5.57 1.93, 5.57 3.87, 5.57 5.57 M5.57 0 C5.57 2.05, 5.57 4.1, 5.57 5.57 M5.57 5.57 C3.77 5.57, 1.97 5.57, 0 5.57 M5.57 5.57 C3.49 5.57, 1.41 5.57, 0 5.57 M0 5.57 C0 3.43, 0 1.3, 0 0 M0 5.57 C0 3.5, 0 1.43, 0 0" stroke="#0091e2" stroke-width="2" fill="none"></path></g><g stroke-linecap="round" transform="translate(301.83294690422076 273.8179531719661) rotate(0 2.783176247164988 2.783176247165045)"><path d="M0 0 L5.57 0 L5.57 5.57 L0 5.57" stroke="none" stroke-width="0" fill="#0091e2"></path><path d="M0 0 C1.67 0, 3.33 0, 5.57 0 M0 0 C1.46 0, 2.92 0, 5.57 0 M5.57 0 C5.57 1.45, 5.57 2.9, 5.57 5.57 M5.57 0 C5.57 1.29, 5.57 2.57, 5.57 5.57 M5.57 5.57 C4.25 5.57, 2.94 5.57, 0 5.57 M5.57 5.57 C3.56 5.57, 1.55 5.57, 0 5.57 M0 5.57 C0 4.04, 0 2.51, 0 0 M0 5.57 C0 4.15, 0 2.73, 0 0" stroke="#0091e2" stroke-width="2" fill="none"></path></g><g stroke-linecap="round" transform="translate(309.09238962057293 273.47006927956454) rotate(0 2.783176247164988 2.783176247165045)"><path d="M0 0 L5.57 0 L5.57 5.57 L0 5.57" stroke="none" stroke-width="0" fill="#0091e2"></path><path d="M0 0 C1.82 0, 3.64 0, 5.57 0 M0 0 C2.11 0, 4.22 0, 5.57 0 M5.57 0 C5.57 1.88, 5.57 3.75, 5.57 5.57 M5.57 0 C5.57 1.95, 5.57 3.9, 5.57 5.57 M5.57 5.57 C3.58 5.57, 1.59 5.57, 0 5.57 M5.57 5.57 C3.96 5.57, 2.36 5.57, 0 5.57 M0 5.57 C0 3.57, 0 1.57, 0 0 M0 5.57 C0 3.89, 0 2.22, 0 0" stroke="#0091e2" stroke-width="2" fill="none"></path></g><g stroke-linecap="round" transform="translate(315.9807429492114 273.5628367603804) rotate(0 2.783176247164988 2.783176247165045)"><path d="M0 0 L5.57 0 L5.57 5.57 L0 5.57" stroke="none" stroke-width="0" fill="#0091e2"></path><path d="M0 0 C2.14 0, 4.27 0, 5.57 0 M0 0 C1.12 0, 2.25 0, 5.57 0 M5.57 0 C5.57 1.76, 5.57 3.52, 5.57 5.57 M5.57 0 C5.57 2.16, 5.57 4.33, 5.57 5.57 M5.57 5.57 C4.1 5.57, 2.63 5.57, 0 5.57 M5.57 5.57 C3.78 5.57, 1.99 5.57, 0 5.57 M0 5.57 C0 3.41, 0 1.25, 0 0 M0 5.57 C0 3.49, 0 1.42, 0 0" stroke="#0091e2" stroke-width="2" fill="none"></path></g><g stroke-linecap="round" transform="translate(294.3531609832705 266.9528092315235) rotate(0 2.783176247164988 2.783176247165045)"><path d="M0 0 L5.57 0 L5.57 5.57 L0 5.57" stroke="none" stroke-width="0" fill="#0091e2"></path><path d="M0 0 C1.85 0, 3.7 0, 5.57 0 M0 0 C2.17 0, 4.34 0, 5.57 0 M5.57 0 C5.57 1.69, 5.57 3.38, 5.57 5.57 M5.57 0 C5.57 1.24, 5.57 2.49, 5.57 5.57 M5.57 5.57 C4.34 5.57, 3.11 5.57, 0 5.57 M5.57 5.57 C3.87 5.57, 2.17 5.57, 0 5.57 M0 5.57 C0 3.98, 0 2.4, 0 0 M0 5.57 C0 3.73, 0 1.89, 0 0" stroke="#0091e2" stroke-width="2" fill="none"></path></g><g stroke-linecap="round" transform="translate(301.65899522580435 267.0455806052254) rotate(0 2.783176247164988 2.783176247165045)"><path d="M0 0 L5.57 0 L5.57 5.57 L0 5.57" stroke="none" stroke-width="0" fill="#0091e2"></path><path d="M0 0 C1.12 0, 2.23 0, 5.57 0 M0 0 C1.53 0, 3.07 0, 5.57 0 M5.57 0 C5.57 1.51, 5.57 3.03, 5.57 5.57 M5.57 0 C5.57 1.93, 5.57 3.85, 5.57 5.57 M5.57 5.57 C3.64 5.57, 1.71 5.57, 0 5.57 M5.57 5.57 C4.43 5.57, 3.29 5.57, 0 5.57 M0 5.57 C0 3.85, 0 2.13, 0 0 M0 5.57 C0 3.45, 0 1.33, 0 0" stroke="#0091e2" stroke-width="2" fill="none"></path></g><g stroke-linecap="round" transform="translate(309.0576008420428 267.04557281945733) rotate(0 2.783176247164988 2.783176247165045)"><path d="M0 0 L5.57 0 L5.57 5.57 L0 5.57" stroke="none" stroke-width="0" fill="#0091e2"></path><path d="M0 0 C1.6 0, 3.19 0, 5.57 0 M0 0 C1.72 0, 3.44 0, 5.57 0 M5.57 0 C5.57 1.59, 5.57 3.19, 5.57 5.57 M5.57 0 C5.57 1.75, 5.57 3.5, 5.57 5.57 M5.57 5.57 C4.39 5.57, 3.22 5.57, 0 5.57 M5.57 5.57 C4.12 5.57, 2.68 5.57, 0 5.57 M0 5.57 C0 3.99, 0 2.42, 0 0 M0 5.57 C0 4.22, 0 2.88, 0 0" stroke="#0091e2" stroke-width="2" fill="none"></path></g><g stroke-linecap="round" transform="translate(308.8140638207949 259.94847903387324) rotate(0 2.783176247164988 2.783176247165045)"><path d="M0 0 L5.57 0 L5.57 5.57 L0 5.57" stroke="none" stroke-width="0" fill="#0091e2"></path><path d="M0 0 C1.92 0, 3.84 0, 5.57 0 M0 0 C1.19 0, 2.38 0, 5.57 0 M5.57 0 C5.57 1.29, 5.57 2.58, 5.57 5.57 M5.57 0 C5.57 1.42, 5.57 2.85, 5.57 5.57 M5.57 5.57 C3.71 5.57, 1.86 5.57, 0 5.57 M5.57 5.57 C3.63 5.57, 1.69 5.57, 0 5.57 M0 5.57 C0 4.06, 0 2.55, 0 0 M0 5.57 C0 3.54, 0 1.51, 0 0" stroke="#0091e2" stroke-width="2" fill="none"></path></g><g stroke-linecap="round" transform="translate(509.17148266810386 63.15967216680872) rotate(0 26.016240756585717 39.788365342708175)"><path d="M0 0 C0 0, 0 0, 0 0 M0 0 C0 0, 0 0, 0 0 M0.13 12.04 C2.3 9.55, 4.46 7.06, 10.63 -0.03 M0.13 12.04 C4.12 7.45, 8.11 2.86, 10.63 -0.03 M0.27 24.08 C5.44 18.13, 10.62 12.17, 21.26 -0.07 M0.27 24.08 C6.25 17.19, 12.24 10.3, 21.26 -0.07 M-0.26 36.88 C9.25 25.95, 18.75 15.01, 31.89 -0.1 M-0.26 36.88 C9.51 25.64, 19.27 14.41, 31.89 -0.1 M-0.12 48.92 C9.91 37.38, 19.94 25.84, 42.52 -0.14 M-0.12 48.92 C12.7 34.16, 25.53 19.4, 42.52 -0.14 M0.01 60.96 C19.99 37.97, 39.97 14.99, 52.49 0.58 M0.01 60.96 C10.64 48.74, 21.26 36.51, 52.49 0.58 M0.14 73 C20.77 49.27, 41.39 25.55, 52.63 12.62 M0.14 73 C14.98 55.93, 29.81 38.87, 52.63 12.62 M2.9 82.02 C22.4 59.59, 41.91 37.15, 52.76 24.66 M2.9 82.02 C15.42 67.62, 27.93 53.23, 52.76 24.66 M13.53 81.99 C23.97 69.98, 34.4 57.98, 52.89 36.7 M13.53 81.99 C26.92 66.59, 40.3 51.19, 52.89 36.7 M24.16 81.95 C35.1 69.36, 46.05 56.77, 52.37 49.5 M24.16 81.95 C35.25 69.2, 46.34 56.44, 52.37 49.5 M34.79 81.92 C40.61 75.23, 46.42 68.54, 52.5 61.54 M34.79 81.92 C41.01 74.76, 47.23 67.61, 52.5 61.54 M45.42 81.88 C48.04 78.87, 50.67 75.85, 52.64 73.58 M45.42 81.88 C47.88 79.05, 50.34 76.22, 52.64 73.58 M-0.16 79.44 C-0.16 79.44, -0.16 79.44, -0.16 79.44 M-0.16 79.44 C-0.16 79.44, -0.16 79.44, -0.16 79.44 M11.88 79.31 C8.97 76.78, 6.06 74.25, -0.19 68.81 M11.88 79.31 C7.35 75.36, 2.81 71.42, -0.19 68.81 M24.68 79.83 C14.94 71.36, 5.2 62.89, -0.23 58.18 M24.68 79.83 C14.97 71.39, 5.27 62.95, -0.23 58.18 M36.72 79.7 C26.53 70.83, 16.33 61.97, -0.26 47.55 M36.72 79.7 C23.86 68.52, 10.99 57.33, -0.26 47.55 M48.76 79.56 C38.94 71.03, 29.12 62.49, -0.29 36.92 M48.76 79.56 C38.11 70.3, 27.45 61.04, -0.29 36.92 M55.52 74.84 C41.37 62.54, 27.22 50.24, -0.33 26.29 M55.52 74.84 C40.14 61.47, 24.76 48.1, -0.33 26.29 M56.24 64.86 C43.82 54.06, 31.39 43.26, -0.36 15.66 M56.24 64.86 C33.72 45.29, 11.2 25.71, -0.36 15.66 M56.21 54.23 C39.94 40.09, 23.67 25.95, 0.36 5.69 M56.21 54.23 C36.89 37.44, 17.58 20.65, 0.36 5.69 M56.17 43.6 C35.7 25.81, 15.24 8.02, 2.59 -2.98 M56.17 43.6 C42.59 31.8, 29 19.99, 2.59 -2.98 M56.14 32.97 C46.26 24.38, 36.37 15.79, 14.63 -3.11 M56.14 32.97 C43.04 21.59, 29.94 10.21, 14.63 -3.11 M56.1 22.34 C45.75 13.34, 35.4 4.34, 26.67 -3.24 M56.1 22.34 C48.02 15.32, 39.93 8.29, 26.67 -3.24 M56.07 11.71 C51.53 7.77, 46.99 3.82, 39.46 -2.72 M56.07 11.71 C50.93 7.25, 45.8 2.79, 39.46 -2.72" stroke="#868e96" stroke-width="1" fill="none"></path><path d="M0 0 C10.9 0, 21.79 0, 52.03 0 M0 0 C14.3 0, 28.59 0, 52.03 0 M52.03 0 C52.03 27.91, 52.03 55.82, 52.03 79.58 M52.03 0 C52.03 16.02, 52.03 32.04, 52.03 79.58 M52.03 79.58 C38.97 79.58, 25.92 79.58, 0 79.58 M52.03 79.58 C33.32 79.58, 14.61 79.58, 0 79.58 M0 79.58 C0 54.63, 0 29.67, 0 0 M0 79.58 C0 61.68, 0 43.78, 0 0" stroke="#c92a2a" stroke-width="2" fill="none"></path></g><g stroke-linecap="round" transform="translate(515.128629801249 69.22664792995772) rotate(0 20.49999221023222 30.430754857547072)"><path d="M0 0 L41 0 L41 60.86 L0 60.86" stroke="none" stroke-width="0" fill="#fff"></path><path d="M0 0 C11 0, 22 0, 41 0 M0 0 C10.73 0, 21.46 0, 41 0 M41 0 C41 15.01, 41 30.03, 41 60.86 M41 0 C41 17.62, 41 35.25, 41 60.86 M41 60.86 C30.78 60.86, 20.56 60.86, 0 60.86 M41 60.86 C26.85 60.86, 12.71 60.86, 0 60.86 M0 60.86 C0 46.15, 0 31.45, 0 0 M0 60.86 C0 47.32, 0 33.78, 0 0" stroke="#c92a2a" stroke-width="2" fill="none"></path></g><g stroke-linecap="round" transform="translate(531.4303170251626 132.6927736868439) rotate(0 4.198304986317339 4.198304986317339)"><path d="M8.4 4.2 C8.4 4.44, 8.38 4.69, 8.33 4.93 C8.29 5.17, 8.23 5.41, 8.14 5.63 C8.06 5.86, 7.96 6.09, 7.83 6.3 C7.71 6.51, 7.57 6.71, 7.41 6.9 C7.26 7.08, 7.08 7.26, 6.9 7.41 C6.71 7.57, 6.51 7.71, 6.3 7.83 C6.09 7.96, 5.86 8.06, 5.63 8.14 C5.41 8.23, 5.17 8.29, 4.93 8.33 C4.69 8.38, 4.44 8.4, 4.2 8.4 C3.96 8.4, 3.71 8.38, 3.47 8.33 C3.23 8.29, 2.99 8.23, 2.76 8.14 C2.53 8.06, 2.31 7.96, 2.1 7.83 C1.89 7.71, 1.69 7.57, 1.5 7.41 C1.31 7.26, 1.14 7.08, 0.98 6.9 C0.83 6.71, 0.68 6.51, 0.56 6.3 C0.44 6.09, 0.34 5.86, 0.25 5.63 C0.17 5.41, 0.11 5.17, 0.06 4.93 C0.02 4.69, 0 4.44, 0 4.2 C0 3.96, 0.02 3.71, 0.06 3.47 C0.11 3.23, 0.17 2.99, 0.25 2.76 C0.34 2.53, 0.44 2.31, 0.56 2.1 C0.68 1.89, 0.83 1.69, 0.98 1.5 C1.14 1.31, 1.31 1.14, 1.5 0.98 C1.69 0.83, 1.89 0.68, 2.1 0.56 C2.31 0.44, 2.53 0.34, 2.76 0.25 C2.99 0.17, 3.23 0.11, 3.47 0.06 C3.71 0.02, 3.96 0, 4.2 0 C4.44 0, 4.69 0.02, 4.93 0.06 C5.17 0.11, 5.41 0.17, 5.63 0.25 C5.86 0.34, 6.09 0.44, 6.3 0.56 C6.51 0.68, 6.71 0.83, 6.9 0.98 C7.08 1.14, 7.26 1.31, 7.41 1.5 C7.57 1.69, 7.71 1.89, 7.83 2.1 C7.96 2.31, 8.06 2.53, 8.14 2.76 C8.23 2.99, 8.29 3.23, 8.33 3.47 C8.38 3.71, 8.39 4.08, 8.4 4.2 C8.41 4.32, 8.41 4.08, 8.4 4.2" stroke="none" stroke-width="0" fill="#fff"></path><path d="M8.4 4.2 C8.4 4.44, 8.38 4.69, 8.33 4.93 C8.29 5.17, 8.23 5.41, 8.14 5.63 C8.06 5.86, 7.96 6.09, 7.83 6.3 C7.71 6.51, 7.57 6.71, 7.41 6.9 C7.26 7.08, 7.08 7.26, 6.9 7.41 C6.71 7.57, 6.51 7.71, 6.3 7.83 C6.09 7.96, 5.86 8.06, 5.63 8.14 C5.41 8.23, 5.17 8.29, 4.93 8.33 C4.69 8.38, 4.44 8.4, 4.2 8.4 C3.96 8.4, 3.71 8.38, 3.47 8.33 C3.23 8.29, 2.99 8.23, 2.76 8.14 C2.53 8.06, 2.31 7.96, 2.1 7.83 C1.89 7.71, 1.69 7.57, 1.5 7.41 C1.31 7.26, 1.14 7.08, 0.98 6.9 C0.83 6.71, 0.68 6.51, 0.56 6.3 C0.44 6.09, 0.34 5.86, 0.25 5.63 C0.17 5.41, 0.11 5.17, 0.06 4.93 C0.02 4.69, 0 4.44, 0 4.2 C0 3.96, 0.02 3.71, 0.06 3.47 C0.11 3.23, 0.17 2.99, 0.25 2.76 C0.34 2.53, 0.44 2.31, 0.56 2.1 C0.68 1.89, 0.83 1.69, 0.98 1.5 C1.14 1.31, 1.31 1.14, 1.5 0.98 C1.69 0.83, 1.89 0.68, 2.1 0.56 C2.31 0.44, 2.53 0.34, 2.76 0.25 C2.99 0.17, 3.23 0.11, 3.47 0.06 C3.71 0.02, 3.96 0, 4.2 0 C4.44 0, 4.69 0.02, 4.93 0.06 C5.17 0.11, 5.41 0.17, 5.63 0.25 C5.86 0.34, 6.09 0.44, 6.3 0.56 C6.51 0.68, 6.71 0.83, 6.9 0.98 C7.08 1.14, 7.26 1.31, 7.41 1.5 C7.57 1.69, 7.71 1.89, 7.83 2.1 C7.96 2.31, 8.06 2.53, 8.14 2.76 C8.23 2.99, 8.29 3.23, 8.33 3.47 C8.38 3.71, 8.39 4.08, 8.4 4.2 C8.41 4.32, 8.41 4.08, 8.4 4.2" stroke="#c92a2a" stroke-width="2" fill="none"></path></g><g stroke-linecap="round" transform="translate(521.2121441206439 76.97398207248727) rotate(0 14.416477890835154 7.306904711193738)"><path d="M0 0 C0 0, 0 0, 0 0 M0 0 C0 0, 0 0, 0 0 M0.13 12.04 C3.28 8.42, 6.44 4.79, 10.63 -0.03 M0.13 12.04 C2.85 8.91, 5.57 5.79, 10.63 -0.03 M4.86 18.8 C9.21 13.79, 13.57 8.78, 21.26 -0.07 M4.86 18.8 C10.96 11.78, 17.06 4.76, 21.26 -0.07 M15.49 18.76 C18.89 14.85, 22.3 10.93, 30.58 1.41 M15.49 18.76 C20.7 12.77, 25.9 6.78, 30.58 1.41 M0.31 14.88 C0.31 14.88, 0.31 14.88, 0.31 14.88 M0.31 14.88 C0.31 14.88, 0.31 14.88, 0.31 14.88 M12.35 14.75 C9.33 12.12, 6.31 9.5, 0.28 4.25 M12.35 14.75 C9.8 12.53, 7.25 10.32, 0.28 4.25 M24.39 14.62 C18.03 9.09, 11.67 3.56, 3.26 -3.75 M24.39 14.62 C16.33 7.61, 8.27 0.6, 3.26 -3.75 M31.91 10.55 C26.19 5.58, 20.47 0.61, 15.3 -3.88 M31.91 10.55 C26.24 5.62, 20.57 0.69, 15.3 -3.88" stroke="#4c6ef588" stroke-width="1" fill="none"></path><path d="M0 0 C6.63 0, 13.26 0, 28.83 0 M0 0 C6.78 0, 13.56 0, 28.83 0 M28.83 0 C28.83 4.7, 28.83 9.39, 28.83 14.61 M28.83 0 C28.83 4.87, 28.83 9.74, 28.83 14.61 M28.83 14.61 C22.67 14.61, 16.51 14.61, 0 14.61 M28.83 14.61 C19.15 14.61, 9.48 14.61, 0 14.61 M0 14.61 C0 11.18, 0 7.75, 0 0 M0 14.61 C0 11.15, 0 7.68, 0 0" stroke="#c92a2a" stroke-width="2" fill="none"></path></g><g stroke-linecap="round" transform="translate(521.2121441206439 103.10009693300628) rotate(0 14.416477890835154 7.306904711193738)"><path d="M0 0 C0 0, 0 0, 0 0 M0 0 C0 0, 0 0, 0 0 M0.13 12.04 C3.87 7.74, 7.6 3.45, 10.63 -0.03 M0.13 12.04 C3.91 7.69, 7.69 3.35, 10.63 -0.03 M4.86 18.8 C10.31 12.53, 15.76 6.26, 21.26 -0.07 M4.86 18.8 C10.49 12.32, 16.13 5.83, 21.26 -0.07 M15.49 18.76 C19.46 14.19, 23.43 9.62, 30.58 1.41 M15.49 18.76 C18.9 14.84, 22.32 10.91, 30.58 1.41 M0.31 14.88 C0.31 14.88, 0.31 14.88, 0.31 14.88 M0.31 14.88 C0.31 14.88, 0.31 14.88, 0.31 14.88 M12.35 14.75 C7.58 10.61, 2.81 6.46, 0.28 4.25 M12.35 14.75 C9.13 11.95, 5.91 9.15, 0.28 4.25 M24.39 14.62 C16.6 7.85, 8.82 1.08, 3.26 -3.75 M24.39 14.62 C18.52 9.51, 12.64 4.4, 3.26 -3.75 M31.91 10.55 C27.45 6.68, 23 2.81, 15.3 -3.88 M31.91 10.55 C27.43 6.66, 22.96 2.77, 15.3 -3.88" stroke="#4c6ef588" stroke-width="1" fill="none"></path><path d="M0 0 C5.87 0, 11.74 0, 28.83 0 M0 0 C9.95 0, 19.89 0, 28.83 0 M28.83 0 C28.83 2.94, 28.83 5.88, 28.83 14.61 M28.83 0 C28.83 3.57, 28.83 7.14, 28.83 14.61 M28.83 14.61 C17.69 14.61, 6.55 14.61, 0 14.61 M28.83 14.61 C21.52 14.61, 14.21 14.61, 0 14.61 M0 14.61 C0 10.42, 0 6.23, 0 0 M0 14.61 C0 10.97, 0 7.33, 0 0" stroke="#c92a2a" stroke-width="2" fill="none"></path></g><g stroke-linecap="round" transform="translate(452.51240437454385 104.2211595468433) rotate(0 21.920131487877597 17.95449899453905)"><path d="M0 0 C0 0, 0 0, 0 0 M0 0 C0 0, 0 0, 0 0 M0.03 6.97 C1.74 4.09, 3.08 2.77, 5.47 0.65 M-0.61 6.5 C0.71 5.36, 1.86 4.24, 5.12 -0.02 M0.74 11.89 C3.69 9.27, 7.29 5.76, 11.33 -0.54 M-0.1 12.54 C4.2 6.42, 7.82 2.43, 10.34 -0.79 M-0.72 17.67 C4.38 13.46, 8.39 8.7, 14.14 1.62 M0.09 18.03 C3.15 13.6, 7.24 9.91, 15.66 -0.61 M-1.15 25.62 C5.01 17.77, 12.03 11.14, 21.76 1.25 M-0.08 23.48 C6.39 17.32, 10.8 10.04, 22.21 -0.8 M-1.3 30.94 C11.35 18.05, 18.17 5.96, 25.59 -1.3 M-0.11 29.76 C7.76 19.49, 16.98 9.64, 26.93 1.02 M0.76 36.05 C10.26 23.43, 23.17 12.65, 31.45 1.86 M1.11 36.44 C11.44 22.13, 23.36 9.05, 31.57 0.1 M3.54 36.76 C15.18 25.04, 26.26 15.39, 36.26 -1.71 M4.42 36.78 C12.71 26.84, 21.32 18.12, 36.45 -0.66 M9.39 36.57 C19.43 23.03, 32.28 13.58, 43.02 -0.56 M10.99 36.75 C20.5 25.62, 29.06 13.23, 42.83 0.11 M16.73 36.91 C27.66 23.85, 39.26 11.57, 47.99 2.48 M15.93 35.75 C26.8 23.07, 38.04 11.83, 45.53 2.63 M21.84 35.34 C27.47 29.21, 33.68 20.03, 47.06 7.21 M21.46 35.51 C27.72 28.38, 35.35 20.35, 46.58 7.63 M27.33 37.85 C34.95 29.71, 41.35 21.64, 47.39 15.56 M26.72 37.03 C31.32 30.53, 35.71 27.51, 46.28 14.37 M33.13 35.07 C38.13 31.93, 42.06 27.29, 44.69 20.17 M32.21 35.39 C36.47 31.74, 40.2 26.57, 45.85 19.91 M37.12 35.22 C39.89 35.6, 40.55 31.45, 45.19 25.92 M37.51 36.57 C39.22 33.25, 41.87 31.23, 46.24 26.77 M42.6 36.27 C43.85 34.96, 45.09 33.49, 46.59 32.33 M42.76 36.18 C44.19 34.47, 45.35 32.76, 46.24 32.32 M0.33 36.2 C0.33 36.2, 0.33 36.2, 0.33 36.2 M0.33 36.2 C0.33 36.2, 0.33 36.2, 0.33 36.2 M5.79 36.41 C3.86 33.48, 2.44 32.4, 0.67 31.09 M6.14 35.71 C3.71 33.91, 1.33 32.46, -0.26 30.85 M11.41 36.45 C10.48 33.13, 5.75 30.1, -0.03 24.31 M11.84 35.47 C8.83 33.26, 4.25 29.17, 0.33 26.13 M18.44 34.44 C12.18 29.2, 3.63 25.26, -1.29 21.88 M18.77 35.74 C14.99 31.89, 9.66 28.25, 0.76 19.44 M23.44 37.09 C16.62 27.91, 9.9 22.11, -0.98 16.39 M24.72 34.97 C16.02 29.06, 8.74 21.97, 0.06 15.01 M32.71 34.32 C22.01 29.6, 13.51 23.55, -0.99 9.66 M30.14 35.3 C24.2 31.27, 16.75 23.82, 0.45 8.56 M35.29 35.83 C25.34 24.19, 15.73 16.29, 2.12 2.6 M36.44 35.97 C27.26 27.85, 19.04 22.21, 0.09 5.13 M42.67 35.49 C30.33 25.86, 19.58 15.04, 1.49 0.56 M43.25 36.07 C28.09 23.07, 12.65 9.62, 0.95 -0.47 M47.03 34.96 C32.7 19.38, 16.6 8.31, 6.74 -0.53 M46.01 32.82 C30.67 20.82, 17.23 8.8, 7.03 -0.9 M47.27 29.2 C36.9 20.92, 32.2 16.54, 14.14 -0.96 M45.38 27.66 C37.85 20.77, 29.26 15.52, 11.8 -0.54 M45.04 22.69 C38.83 15.63, 32.12 11.21, 17.48 -0.69 M46.63 23.11 C39.59 17.5, 31.65 10.31, 18.52 -0.15 M47.17 17.81 C37.88 10.51, 32.61 3.38, 26.47 -2.84 M45.45 17.81 C37.88 10.64, 29.44 3.94, 23.99 -1.91 M44.45 12.98 C40.99 8.3, 36.33 4.5, 30.56 -2.27 M46.15 13.22 C39.88 8.1, 33.8 1.71, 31.74 -1.26 M46.66 7.27 C41.61 4.45, 38.43 2.21, 38.53 -0.12 M46.28 7.08 C43.94 4.24, 41.02 2.58, 37.69 -0.54" stroke="#15aabf" stroke-width="0.5" fill="none"></path><path d="M-0.77 -0.57 C9.08 1.31, 19.3 1.24, 44.74 -1.8 M-0.53 -0.75 C17.51 -0.77, 34.7 -0.57, 42.85 -0.07 M43.63 0.64 C42.82 10.36, 44.15 22.88, 42.73 34.31 M43.33 -0.79 C43.94 13.67, 42.8 27.35, 44.7 36.04 M44.74 37.58 C32.94 36.82, 25.75 35.58, -0.93 35.44 M43.26 36.54 C32.37 35.56, 20.36 36.07, -0.13 35.48 M-1.55 34.46 C-1.42 25.64, -0.98 17.23, -1.01 1.32 M0.98 35.9 C0.45 28.19, 1.26 21.75, -0.5 -0.7" stroke="#000000" stroke-width="1" fill="none"></path></g><g stroke-linecap="round" transform="translate(451.77244706520514 75.68991778195993) rotate(0 22 8.05370584277739)"><path d="M0 0 C0 0, 0 0, 0 0 M0 0 C0 0, 0 0, 0 0 M-0.07 6.24 C1.06 5.1, 3.54 2.8, 4.29 -0.07 M-0.44 6.61 C0.87 5.36, 2.35 3.2, 4.93 0.3 M0.68 12.64 C3.66 9.8, 5.64 5.96, 12.14 -0.1 M0.06 11.27 C3.63 7.31, 7.99 1.89, 10.17 0 M1.89 16.48 C7.76 9.68, 11.01 5.34, 14.54 -0.97 M0.47 16.51 C4.65 12.74, 9.21 6.84, 15.41 0.33 M5.05 17.86 C11.77 11.6, 17.7 5.94, 20.61 1.55 M6.88 17.14 C11.36 9.93, 18.43 3.71, 22 -1.04 M13.04 15.95 C15.51 8.95, 21.99 2.93, 26.82 2.15 M11.23 16.02 C17.26 9.97, 23.36 5.26, 26.59 0.12 M16.07 16.42 C21.67 14.01, 22.87 11.7, 33.15 1.72 M16.75 16.44 C21.83 11.04, 25.77 6.58, 32.04 -0.59 M22.13 17.08 C28.84 12.6, 32.82 2.41, 35.87 -0.44 M21.77 16.01 C25.83 12.66, 28.5 8.62, 37.17 0.66 M25.59 16.18 C33.07 13.03, 37.82 5.55, 42.64 1.62 M27.59 17.61 C30.03 12.17, 34.75 9.31, 43.13 0.79 M34.14 16.59 C37.99 13.14, 41.18 10.22, 47.58 2.3 M32.81 16.18 C36.48 13.76, 39.54 9.63, 45.96 2.24 M37.61 17.76 C39.98 13.84, 44.06 10.53, 45.81 8.89 M37.58 17.48 C40.55 14.58, 43.66 10.95, 46.16 8.38 M0.33 16.39 C0.33 16.39, 0.33 16.39, 0.33 16.39 M0.33 16.39 C0.33 16.39, 0.33 16.39, 0.33 16.39 M6.6 16.34 C4.89 15.13, 2.35 13.32, -0.25 10.28 M6.07 16.08 C3.8 13.79, 1.41 11.96, -0.46 11.05 M13.55 17.84 C7.49 10.93, 2.1 7.07, 0.03 7.22 M11.89 15.83 C8.6 13.73, 5.78 10.39, 0.47 6.48 M17.62 16.76 C11.47 9.77, 5.71 4.34, 1.9 -0.37 M17.82 15.82 C12.05 10.63, 7.79 7.33, -0.64 0.6 M23.79 15.35 C19.64 11.73, 15.92 8.68, 1.34 -4.9 M25.05 15.3 C19.99 12.48, 14.16 7.17, 2.53 -3.73 M29.94 14.4 C22.49 8.44, 15.71 3.13, 10.06 -3.57 M30.46 16.2 C21.32 9.82, 13.22 2.3, 8.8 -2.89 M38.4 15.96 C28.41 8.59, 19.09 -0.36, 14.98 -4.64 M36.75 16.68 C29.1 9.62, 22.81 4.53, 15.44 -2.06 M44.19 15.99 C37.28 13.38, 30.92 8.78, 19.3 -2.95 M43.74 15.82 C34.76 9.15, 28.68 2.84, 20.76 -2.31 M45.28 11.97 C41.39 8.67, 37.05 8.49, 27.14 -1.53 M45.9 14 C41.54 9.31, 36.13 5.22, 26.1 -3.63 M44.81 8.43 C40.59 5.88, 38.12 2.46, 31.61 -3.96 M45.8 8.83 C40.35 3.08, 36.54 -1.07, 33.04 -2.77 M46.17 2.36 C44.86 1.4, 43.1 -0.96, 38.77 -2.18 M45.89 2.93 C43.83 1.83, 41.88 -0.05, 39.33 -2.76" stroke="#fab005" stroke-width="0.5" fill="none"></path><path d="M-1.22 1.26 C11.44 1.32, 26.37 -1.68, 45.87 1.02 M0.27 -0.35 C17.65 0.19, 33.88 0.26, 44.13 -0.99 M43.46 -0.71 C44.52 5.46, 43.09 8.98, 45.15 15.32 M44.22 0.26 C43.22 6.43, 44.61 11.9, 43.31 16.59 M42.5 17.05 C31.8 16.18, 17.24 16, -0.79 16.38 M43.95 16.17 C34.35 16.96, 25.87 15.96, -0.21 15.36 M-1.36 15.9 C-0.88 11.1, -0.69 5.01, -1.53 -1.4 M0.11 15.83 C0.61 11.53, -0.56 5.44, -0.78 -0.04" stroke="#000000" stroke-width="1" fill="none"></path></g><g transform="translate(452.2372114299724 155.415281195881) rotate(0 55.5 10)"><text x="0" y="14" font-family="Virgil, Segoe UI Emoji" font-size="16px" fill="#c92a2a" text-anchor="start" style="white-space: pre;" direction="ltr">CTC Client #1</text></g><g stroke-linecap="round" transform="translate(598.2120712358085 321.12773250315) rotate(0 26.016240756585717 39.788365342708175)"><path d="M0 0 C0 0, 0 0, 0 0 M0 0 C0 0, 0 0, 0 0 M0.13 12.04 C3.44 8.23, 6.76 4.42, 10.63 -0.03 M0.13 12.04 C3.83 7.79, 7.52 3.55, 10.63 -0.03 M0.27 24.08 C6.03 17.45, 11.8 10.82, 21.26 -0.07 M0.27 24.08 C6.01 17.48, 11.75 10.87, 21.26 -0.07 M-0.26 36.88 C9.68 25.44, 19.62 14.01, 31.89 -0.1 M-0.26 36.88 C10.17 24.89, 20.59 12.89, 31.89 -0.1 M-0.12 48.92 C13.55 33.19, 27.22 17.47, 42.52 -0.14 M-0.12 48.92 C13.03 33.78, 26.19 18.65, 42.52 -0.14 M0.01 60.96 C11.59 47.64, 23.17 34.32, 52.49 0.58 M0.01 60.96 C11.88 47.3, 23.75 33.65, 52.49 0.58 M0.14 73 C11.65 59.76, 23.16 46.52, 52.63 12.62 M0.14 73 C20.37 49.73, 40.61 26.45, 52.63 12.62 M2.9 82.02 C18.46 64.12, 34.03 46.22, 52.76 24.66 M2.9 82.02 C18.62 63.93, 34.35 45.84, 52.76 24.66 M13.53 81.99 C28 65.34, 42.47 48.69, 52.89 36.7 M13.53 81.99 C24.47 69.4, 35.41 56.82, 52.89 36.7 M24.16 81.95 C30.22 74.98, 36.29 68, 52.37 49.5 M24.16 81.95 C34.91 69.59, 45.66 57.22, 52.37 49.5 M34.79 81.92 C40.66 75.17, 46.52 68.43, 52.5 61.54 M34.79 81.92 C39.94 76, 45.09 70.07, 52.5 61.54 M45.42 81.88 C47.79 79.15, 50.17 76.42, 52.64 73.58 M45.42 81.88 C47.9 79.03, 50.38 76.18, 52.64 73.58 M-0.16 79.44 C-0.16 79.44, -0.16 79.44, -0.16 79.44 M-0.16 79.44 C-0.16 79.44, -0.16 79.44, -0.16 79.44 M11.88 79.31 C9.2 76.97, 6.51 74.63, -0.19 68.81 M11.88 79.31 C8.81 76.63, 5.73 73.96, -0.19 68.81 M24.68 79.83 C19.47 75.3, 14.26 70.77, -0.23 58.18 M24.68 79.83 C15.91 72.2, 7.13 64.58, -0.23 58.18 M36.72 79.7 C28.08 72.19, 19.45 64.68, -0.26 47.55 M36.72 79.7 C25.73 70.15, 14.74 60.59, -0.26 47.55 M48.76 79.56 C34.11 66.83, 19.46 54.09, -0.29 36.92 M48.76 79.56 C35.66 68.18, 22.57 56.79, -0.29 36.92 M55.52 74.84 C40.56 61.83, 25.6 48.83, -0.33 26.29 M55.52 74.84 C34 56.14, 12.49 37.43, -0.33 26.29 M56.24 64.86 C36.27 47.5, 16.3 30.14, -0.36 15.66 M56.24 64.86 C43.02 53.37, 29.8 41.88, -0.36 15.66 M56.21 54.23 C45.01 44.5, 33.81 34.77, 0.36 5.69 M56.21 54.23 C35.86 36.55, 15.51 18.86, 0.36 5.69 M56.17 43.6 C35.75 25.86, 15.34 8.11, 2.59 -2.98 M56.17 43.6 C44.75 33.68, 33.33 23.75, 2.59 -2.98 M56.14 32.97 C44.72 23.05, 33.3 13.13, 14.63 -3.11 M56.14 32.97 C47.37 25.36, 38.61 17.74, 14.63 -3.11 M56.1 22.34 C45.47 13.1, 34.84 3.86, 26.67 -3.24 M56.1 22.34 C47.33 14.72, 38.57 7.1, 26.67 -3.24 M56.07 11.71 C51.02 7.33, 45.98 2.94, 39.46 -2.72 M56.07 11.71 C52.19 8.34, 48.31 4.97, 39.46 -2.72" stroke="#868e96" stroke-width="1" fill="none"></path><path d="M0 0 C11.3 0, 22.6 0, 52.03 0 M0 0 C13.18 0, 26.36 0, 52.03 0 M52.03 0 C52.03 21.91, 52.03 43.82, 52.03 79.58 M52.03 0 C52.03 17.47, 52.03 34.93, 52.03 79.58 M52.03 79.58 C31.33 79.58, 10.63 79.58, 0 79.58 M52.03 79.58 C36.88 79.58, 21.72 79.58, 0 79.58 M0 79.58 C0 52.06, 0 24.53, 0 0 M0 79.58 C0 49.18, 0 18.79, 0 0" stroke="#c92a2a" stroke-width="2" fill="none"></path></g><g stroke-linecap="round" transform="translate(604.1692183689536 327.194708266299) rotate(0 20.49999221023222 30.430754857547072)"><path d="M0 0 L41 0 L41 60.86 L0 60.86" stroke="none" stroke-width="0" fill="#fff"></path><path d="M0 0 C11.34 0, 22.68 0, 41 0 M0 0 C14 0, 28 0, 41 0 M41 0 C41 14.6, 41 29.2, 41 60.86 M41 0 C41 14.21, 41 28.42, 41 60.86 M41 60.86 C27.82 60.86, 14.65 60.86, 0 60.86 M41 60.86 C25.6 60.86, 10.2 60.86, 0 60.86 M0 60.86 C0 45.58, 0 30.3, 0 0 M0 60.86 C0 40.73, 0 20.6, 0 0" stroke="#c92a2a" stroke-width="2" fill="none"></path></g><g stroke-linecap="round" transform="translate(620.4709055928672 390.660834023185) rotate(0 4.198304986317339 4.198304986317339)"><path d="M8.4 4.2 C8.4 4.44, 8.38 4.69, 8.33 4.93 C8.29 5.17, 8.23 5.41, 8.14 5.63 C8.06 5.86, 7.96 6.09, 7.83 6.3 C7.71 6.51, 7.57 6.71, 7.41 6.9 C7.26 7.08, 7.08 7.26, 6.9 7.41 C6.71 7.57, 6.51 7.71, 6.3 7.83 C6.09 7.96, 5.86 8.06, 5.63 8.14 C5.41 8.23, 5.17 8.29, 4.93 8.33 C4.69 8.38, 4.44 8.4, 4.2 8.4 C3.96 8.4, 3.71 8.38, 3.47 8.33 C3.23 8.29, 2.99 8.23, 2.76 8.14 C2.53 8.06, 2.31 7.96, 2.1 7.83 C1.89 7.71, 1.69 7.57, 1.5 7.41 C1.31 7.26, 1.14 7.08, 0.98 6.9 C0.83 6.71, 0.68 6.51, 0.56 6.3 C0.44 6.09, 0.34 5.86, 0.25 5.63 C0.17 5.41, 0.11 5.17, 0.06 4.93 C0.02 4.69, 0 4.44, 0 4.2 C0 3.96, 0.02 3.71, 0.06 3.47 C0.11 3.23, 0.17 2.99, 0.25 2.76 C0.34 2.53, 0.44 2.31, 0.56 2.1 C0.68 1.89, 0.83 1.69, 0.98 1.5 C1.14 1.31, 1.31 1.14, 1.5 0.98 C1.69 0.83, 1.89 0.68, 2.1 0.56 C2.31 0.44, 2.53 0.34, 2.76 0.25 C2.99 0.17, 3.23 0.11, 3.47 0.06 C3.71 0.02, 3.96 0, 4.2 0 C4.44 0, 4.69 0.02, 4.93 0.06 C5.17 0.11, 5.41 0.17, 5.63 0.25 C5.86 0.34, 6.09 0.44, 6.3 0.56 C6.51 0.68, 6.71 0.83, 6.9 0.98 C7.08 1.14, 7.26 1.31, 7.41 1.5 C7.57 1.69, 7.71 1.89, 7.83 2.1 C7.96 2.31, 8.06 2.53, 8.14 2.76 C8.23 2.99, 8.29 3.23, 8.33 3.47 C8.38 3.71, 8.39 4.08, 8.4 4.2 C8.41 4.32, 8.41 4.08, 8.4 4.2" stroke="none" stroke-width="0" fill="#fff"></path><path d="M8.4 4.2 C8.4 4.44, 8.38 4.69, 8.33 4.93 C8.29 5.17, 8.23 5.41, 8.14 5.63 C8.06 5.86, 7.96 6.09, 7.83 6.3 C7.71 6.51, 7.57 6.71, 7.41 6.9 C7.26 7.08, 7.08 7.26, 6.9 7.41 C6.71 7.57, 6.51 7.71, 6.3 7.83 C6.09 7.96, 5.86 8.06, 5.63 8.14 C5.41 8.23, 5.17 8.29, 4.93 8.33 C4.69 8.38, 4.44 8.4, 4.2 8.4 C3.96 8.4, 3.71 8.38, 3.47 8.33 C3.23 8.29, 2.99 8.23, 2.76 8.14 C2.53 8.06, 2.31 7.96, 2.1 7.83 C1.89 7.71, 1.69 7.57, 1.5 7.41 C1.31 7.26, 1.14 7.08, 0.98 6.9 C0.83 6.71, 0.68 6.51, 0.56 6.3 C0.44 6.09, 0.34 5.86, 0.25 5.63 C0.17 5.41, 0.11 5.17, 0.06 4.93 C0.02 4.69, 0 4.44, 0 4.2 C0 3.96, 0.02 3.71, 0.06 3.47 C0.11 3.23, 0.17 2.99, 0.25 2.76 C0.34 2.53, 0.44 2.31, 0.56 2.1 C0.68 1.89, 0.83 1.69, 0.98 1.5 C1.14 1.31, 1.31 1.14, 1.5 0.98 C1.69 0.83, 1.89 0.68, 2.1 0.56 C2.31 0.44, 2.53 0.34, 2.76 0.25 C2.99 0.17, 3.23 0.11, 3.47 0.06 C3.71 0.02, 3.96 0, 4.2 0 C4.44 0, 4.69 0.02, 4.93 0.06 C5.17 0.11, 5.41 0.17, 5.63 0.25 C5.86 0.34, 6.09 0.44, 6.3 0.56 C6.51 0.68, 6.71 0.83, 6.9 0.98 C7.08 1.14, 7.26 1.31, 7.41 1.5 C7.57 1.69, 7.71 1.89, 7.83 2.1 C7.96 2.31, 8.06 2.53, 8.14 2.76 C8.23 2.99, 8.29 3.23, 8.33 3.47 C8.38 3.71, 8.39 4.08, 8.4 4.2 C8.41 4.32, 8.41 4.08, 8.4 4.2" stroke="#c92a2a" stroke-width="2" fill="none"></path></g><g stroke-linecap="round" transform="translate(610.2527326883485 334.9420424088288) rotate(0 14.416477890835154 7.306904711193738)"><path d="M0 0 C0 0, 0 0, 0 0 M0 0 C0 0, 0 0, 0 0 M0.13 12.04 C4.01 7.58, 7.88 3.13, 10.63 -0.03 M0.13 12.04 C2.72 9.07, 5.3 6.1, 10.63 -0.03 M4.86 18.8 C10.36 12.47, 15.86 6.15, 21.26 -0.07 M4.86 18.8 C10.79 11.97, 16.72 5.15, 21.26 -0.07 M15.49 18.76 C19.98 13.6, 24.46 8.44, 30.58 1.41 M15.49 18.76 C20.48 13.02, 25.47 7.28, 30.58 1.41 M0.31 14.88 C0.31 14.88, 0.31 14.88, 0.31 14.88 M0.31 14.88 C0.31 14.88, 0.31 14.88, 0.31 14.88 M12.35 14.75 C9.43 12.21, 6.51 9.67, 0.28 4.25 M12.35 14.75 C9.34 12.13, 6.32 9.51, 0.28 4.25 M24.39 14.62 C17.55 8.67, 10.71 2.72, 3.26 -3.75 M24.39 14.62 C19.25 10.15, 14.11 5.68, 3.26 -3.75 M31.91 10.55 C25.68 5.14, 19.45 -0.27, 15.3 -3.88 M31.91 10.55 C28.55 7.64, 25.2 4.72, 15.3 -3.88" stroke="#4c6ef588" stroke-width="1" fill="none"></path><path d="M0 0 C8.85 0, 17.69 0, 28.83 0 M0 0 C6.04 0, 12.08 0, 28.83 0 M28.83 0 C28.83 4.66, 28.83 9.32, 28.83 14.61 M28.83 0 C28.83 3.55, 28.83 7.1, 28.83 14.61 M28.83 14.61 C20.44 14.61, 12.05 14.61, 0 14.61 M28.83 14.61 C21.64 14.61, 14.45 14.61, 0 14.61 M0 14.61 C0 10.9, 0 7.18, 0 0 M0 14.61 C0 9.81, 0 5, 0 0" stroke="#c92a2a" stroke-width="2" fill="none"></path></g><g stroke-linecap="round" transform="translate(610.2527326883485 361.0681572693476) rotate(0 14.416477890835154 7.306904711193738)"><path d="M0 0 C0 0, 0 0, 0 0 M0 0 C0 0, 0 0, 0 0 M0.13 12.04 C4.28 7.28, 8.42 2.51, 10.63 -0.03 M0.13 12.04 C3.13 8.59, 6.13 5.14, 10.63 -0.03 M4.86 18.8 C10.52 12.29, 16.17 5.78, 21.26 -0.07 M4.86 18.8 C10.37 12.46, 15.89 6.11, 21.26 -0.07 M15.49 18.76 C19.83 13.77, 24.17 8.78, 30.58 1.41 M15.49 18.76 C20.08 13.49, 24.67 8.21, 30.58 1.41 M0.31 14.88 C0.31 14.88, 0.31 14.88, 0.31 14.88 M0.31 14.88 C0.31 14.88, 0.31 14.88, 0.31 14.88 M12.35 14.75 C9.66 12.41, 6.98 10.08, 0.28 4.25 M12.35 14.75 C9.34 12.13, 6.33 9.52, 0.28 4.25 M24.39 14.62 C16.15 7.46, 7.91 0.29, 3.26 -3.75 M24.39 14.62 C19.5 10.36, 14.6 6.1, 3.26 -3.75 M31.91 10.55 C27.35 6.58, 22.79 2.62, 15.3 -3.88 M31.91 10.55 C25.81 5.25, 19.72 -0.04, 15.3 -3.88" stroke="#4c6ef588" stroke-width="1" fill="none"></path><path d="M0 0 C11.3 0, 22.6 0, 28.83 0 M0 0 C7.2 0, 14.41 0, 28.83 0 M28.83 0 C28.83 4.08, 28.83 8.16, 28.83 14.61 M28.83 0 C28.83 4.44, 28.83 8.89, 28.83 14.61 M28.83 14.61 C21.9 14.61, 14.97 14.61, 0 14.61 M28.83 14.61 C17.72 14.61, 6.62 14.61, 0 14.61 M0 14.61 C0 11.14, 0 7.67, 0 0 M0 14.61 C0 10.52, 0 6.43, 0 0" stroke="#c92a2a" stroke-width="2" fill="none"></path></g><g stroke-linecap="round" transform="translate(541.5529929422485 362.1892198831848) rotate(0 21.920131487877597 17.95449899453905)"><path d="M0 0 C0 0, 0 0, 0 0 M0 0 C0 0, 0 0, 0 0 M-0.28 6.54 C0.37 4.41, 1.7 4.32, 4.87 1.02 M-0.3 6.28 C1.13 4.72, 2.88 2.93, 5.17 0.61 M0.77 12.06 C4.96 8.1, 8.83 3.66, 11.21 0.31 M0.45 12.54 C4.58 7.13, 8 3.29, 10.53 -0.08 M-0.58 16.69 C3.96 10.93, 12.17 5.55, 15.7 -0.65 M0.59 19.01 C2.63 13.95, 7.52 10.93, 16.37 0.25 M-0.66 23.3 C4.86 16.91, 8.24 14.3, 19.61 0.48 M-0.31 23.9 C5.02 17.51, 10 12.32, 20.49 -0.14 M0.86 30.57 C7.75 23.34, 12.95 13.4, 25.23 1.1 M0.69 30.67 C8.25 20.32, 17.65 9.89, 27.15 -0.66 M-0.3 36.89 C11.84 23.41, 22.25 10.19, 30.52 -2.03 M-0.46 36.39 C12.41 23.06, 24.72 10.04, 31.64 -0.89 M5.36 38.05 C16.01 23.83, 27.07 7.3, 38.21 -0.9 M6.2 36.91 C16.51 22.82, 28.73 9.29, 37.85 0.53 M12.9 37.14 C21.81 24.55, 28.63 15.68, 43.33 -0.58 M10.94 36.11 C23.76 22.52, 35.01 7.66, 42.39 -0.94 M15.64 38.18 C27.13 25.03, 37.99 11.27, 44.86 2.12 M15.8 36.91 C25.08 24.8, 34.98 13.12, 46.94 0.89 M23.47 35.87 C26.61 29.56, 33.65 23.16, 44.64 7.08 M21.4 36.44 C27.37 30.8, 32.29 23.65, 45.67 8.78 M27.8 35.43 C31 31.98, 35.02 25.86, 47.46 13.84 M26.62 37.17 C30.89 32.26, 34.73 28.13, 46.03 14.39 M33.08 36.22 C36.53 32.34, 41.68 27.25, 46.87 21.71 M32.65 36.03 C36.96 31.24, 41.95 26.11, 45.2 19.76 M37.62 35.88 C41.73 33.31, 42.72 28.51, 46.79 26.48 M36.91 35.82 C40.65 32.95, 44.38 27.93, 46.45 27.11 M42.69 36.16 C43.89 34.85, 45.48 33.06, 45.75 32.22 M42.72 36.2 C44.27 34.69, 45.18 33.28, 46.09 32.06 M0.33 36.2 C0.33 36.2, 0.33 36.2, 0.33 36.2 M0.33 36.2 C0.33 36.2, 0.33 36.2, 0.33 36.2 M5.82 35.46 C4.5 34.13, 2.02 32.79, 0.18 29.94 M5.69 35.87 C3.68 34.35, 1.68 32.17, 0.04 30.85 M13.85 36.55 C7.62 31.58, 7.15 29.62, 0.54 26.16 M13.1 35.96 C8.38 32.35, 4.48 27.86, -0.02 26.32 M17.92 36.51 C11.89 30.88, 8.47 27.43, 0.29 20.23 M17.47 36.23 C12.99 31.8, 7.75 27.65, -0.08 19.52 M25.25 34.17 C18.58 30.42, 12.39 26.44, 1.66 13.61 M23.88 36.31 C15.98 28.93, 7.55 20.59, -0.05 14.74 M30.91 34.58 C24.49 30.14, 14.02 21.04, 0.37 9.63 M30.98 36.09 C23.62 28.25, 14.71 21.71, -0.68 8.56 M36.27 35.61 C28.42 24.71, 14.79 19.34, 2.02 2.79 M36.87 35.07 C24.73 26, 13.71 15.88, -0.17 3.68 M41.86 35.84 C31.03 23.89, 15.76 12.91, -0.88 0.08 M42.41 35.44 C31.93 26.58, 21.9 17.83, 1.38 -0.32 M46.1 33.69 C34.8 23.57, 26.85 15.97, 6.39 -1.39 M46.51 34.62 C34.78 22.68, 23.74 13.4, 7.92 0 M43.85 28.44 C35.32 17.79, 21.66 8.52, 11.35 -1.69 M45.33 27.6 C35.31 20.04, 25.35 10.02, 12.62 0 M46.92 23.91 C34.91 16.43, 28.4 6.09, 17.78 -1.98 M45.42 24.06 C37.73 16.95, 30.25 10.34, 19.99 -1.54 M46.98 16.39 C36.45 11.4, 29.79 4.3, 24.57 -0.57 M45.28 17.64 C40.35 12.8, 36.11 9.01, 25.33 -1.1 M46.88 12.25 C41.7 6.21, 34.97 3.85, 30.07 -1.95 M45.29 12.92 C39.79 8.25, 35.97 3.96, 31.73 -0.13 M45.29 7.7 C41.84 3.71, 38.99 0.56, 37.22 0.03 M46.18 7.08 C43.55 4.43, 40.42 1.66, 37.53 -0.42" stroke="#15aabf" stroke-width="0.5" fill="none"></path><path d="M0.83 -0.45 C14.95 -0.76, 29.49 1.36, 42.84 1.49 M-0.6 0.24 C13.59 -0.41, 25.42 -0.41, 43.63 -0.79 M42.51 -1.49 C44.16 12.9, 42.41 22.64, 43.92 37.31 M44.05 -0.62 C44.86 13.79, 44.1 28.81, 43.24 36.89 M45.35 36.04 C36.11 35.22, 23.79 34.78, 1.71 34.93 M43.35 36.49 C31.11 34.53, 18.87 34.56, -0.62 36.64 M0.62 33.99 C-0.95 24.39, 0.28 12.19, -0.4 0.14 M0.95 34.97 C-0.44 27.06, -0.83 18.43, -0.43 0.18" stroke="#000000" stroke-width="1" fill="none"></path></g><g stroke-linecap="round" transform="translate(540.8130356329095 333.65797811830123) rotate(0 22 8.05370584277739)"><path d="M0 0 C0 0, 0 0, 0 0 M0 0 C0 0, 0 0, 0 0 M-0.81 5.81 C0.95 5.22, 2.91 3.27, 4.87 0.16 M-0.38 6.45 C1.49 4.55, 3.12 2.98, 5.25 0.25 M1.09 12.55 C4.54 8.53, 7.6 4.4, 11.85 0.11 M0.64 11.58 C2.33 9.63, 4.51 6.73, 11.21 0.16 M-0.54 16.24 C6.8 12.01, 11.24 4.65, 14.09 0.74 M0.46 16.54 C6.48 12, 11.38 5.78, 14.97 0.41 M5.85 15.92 C9.77 12.85, 15.38 5.5, 20.08 -1.66 M5.67 16.47 C9.7 12.52, 13.52 8.02, 20.88 -0.81 M12.47 17.81 C15.91 9.81, 21.08 5.79, 26.79 -1.32 M11.23 16.49 C15.62 11.67, 19.95 7.46, 26.95 1.15 M16.9 17.66 C18.9 14.12, 21.85 7.96, 33.39 0.14 M17.05 17.67 C21.72 13.56, 24.74 7.17, 32.65 0.05 M21.27 17.95 C25.34 9.35, 33.49 4.42, 38.62 1.61 M21.63 17.26 C26.07 12.46, 32.37 6.61, 36.7 0.04 M29.24 15.62 C30.12 13.32, 34.31 9.53, 44.24 -1.84 M27.7 17.86 C32.44 10.51, 38.57 3.48, 43.15 0.67 M33.51 17.8 C36.43 13.1, 37.74 10.23, 46.74 2.35 M32.36 16.5 C36.12 11.86, 41.26 7.4, 45.73 1.64 M37.32 17.44 C39.57 15.78, 40.81 12.41, 44.89 8.48 M38.43 17.56 C40.43 14.36, 42.18 12.65, 45.56 8.39 M0.33 16.39 C0.33 16.39, 0.33 16.39, 0.33 16.39 M0.33 16.39 C0.33 16.39, 0.33 16.39, 0.33 16.39 M5.8 16.66 C3.99 15.01, 2.27 13.14, 0.15 10.13 M5.99 16.2 C3.89 14.25, 1.05 11.88, 0.27 10.57 M13.75 17.23 C6.15 11.77, 4.03 7.83, 1.88 4.31 M12.21 16.84 C9.34 12.49, 6.55 11.02, 0.63 6.18 M17.47 16.53 C13.33 9.31, 4.12 5.38, 0.49 -1.21 M18.99 15.57 C14.1 11.3, 9.01 7.85, 0.46 0.09 M26.27 16.81 C19.81 13.07, 14.27 9.15, 1.21 -2.93 M24.5 16.49 C17.01 9.63, 10.76 4.22, 2.17 -3.23 M31.06 15.78 C23.82 11.39, 21.31 5.94, 9.98 -3.28 M30.36 17.33 C23.36 10.06, 16.26 4.18, 8.67 -1.79 M34.77 14.1 C33.07 10.9, 26.4 7.95, 15.7 -1.98 M36.91 16.15 C32.35 10.92, 26.08 8.38, 14.14 -3.7 M41.29 15.39 C34.26 8.88, 26.65 2.22, 20.21 -4.76 M42.42 16.53 C35.69 11.12, 30.28 4.94, 20.27 -2.13 M46.11 13.36 C40.6 9.86, 37.89 3.99, 27.51 -1.55 M46.3 14.2 C40.88 8.47, 35.16 4.34, 26.08 -4.04 M46.77 8.74 C40.46 3.16, 38.4 1.6, 32.19 -3.33 M46.29 7.45 C42.4 5.09, 39.47 2.5, 32.86 -3.66 M47.08 2.43 C44.11 2.75, 44.06 0.01, 39.51 -2.09 M46.08 3.41 C44.73 1.96, 43.07 0.4, 39.52 -2.65" stroke="#fab005" stroke-width="0.5" fill="none"></path><path d="M-0.7 -0.37 C15.28 1.85, 33.18 1.59, 43.76 -0.49 M0.97 -0.01 C17.34 -0.13, 34.1 -0.89, 44.21 -0.8 M44.49 1.1 C42.97 4.74, 43.96 11.29, 45.41 17.68 M44.54 -0.11 C43.96 4.7, 43.55 8.66, 43.33 16.04 M45.79 15.24 C28.03 14.83, 15.79 15.16, -0.41 17.02 M43.53 15.15 C34.56 15.44, 25.4 17.09, 0.27 16.93 M-0.53 16.29 C0.42 11.89, -0.37 8.14, -0.81 -0.75 M-0.49 16.19 C-0.95 12.14, -0.5 7.62, -0.66 -0.5" stroke="#000000" stroke-width="1" fill="none"></path></g><g transform="translate(541.2777999976768 413.3833415322223) rotate(0 59 10)"><text x="0" y="14" font-family="Virgil, Segoe UI Emoji" font-size="16px" fill="#c92a2a" text-anchor="start" style="white-space: pre;" direction="ltr">CTC Client #2</text></g><g stroke-linecap="round" transform="translate(108.90491163010302 103.1031137672743) rotate(0 26.016240756585717 39.788365342708175)"><path d="M0 0 C0 0, 0 0, 0 0 M0 0 C0 0, 0 0, 0 0 M0.13 12.04 C2.61 9.2, 5.08 6.35, 10.63 -0.03 M0.13 12.04 C2.52 9.3, 4.9 6.55, 10.63 -0.03 M0.27 24.08 C8.54 14.57, 16.81 5.05, 21.26 -0.07 M0.27 24.08 C8.39 14.74, 16.51 5.4, 21.26 -0.07 M-0.26 36.88 C6.81 28.74, 13.88 20.61, 31.89 -0.1 M-0.26 36.88 C8.05 27.32, 16.37 17.76, 31.89 -0.1 M-0.12 48.92 C9.42 37.94, 18.96 26.96, 42.52 -0.14 M-0.12 48.92 C15.61 30.82, 31.35 12.71, 42.52 -0.14 M0.01 60.96 C19.11 38.99, 38.21 17.02, 52.49 0.58 M0.01 60.96 C10.67 48.7, 21.32 36.44, 52.49 0.58 M0.14 73 C17.69 52.82, 35.23 32.64, 52.63 12.62 M0.14 73 C16.73 53.92, 33.32 34.83, 52.63 12.62 M2.9 82.02 C15.45 67.58, 28.01 53.14, 52.76 24.66 M2.9 82.02 C15.21 67.87, 27.51 53.71, 52.76 24.66 M13.53 81.99 C27.07 66.41, 40.62 50.83, 52.89 36.7 M13.53 81.99 C22.57 71.59, 31.61 61.19, 52.89 36.7 M24.16 81.95 C30.84 74.27, 37.51 66.59, 52.37 49.5 M24.16 81.95 C32.82 71.99, 41.49 62.02, 52.37 49.5 M34.79 81.92 C39.05 77.01, 43.32 72.11, 52.5 61.54 M34.79 81.92 C39.09 76.98, 43.38 72.03, 52.5 61.54 M45.42 81.88 C47.15 79.89, 48.89 77.9, 52.64 73.58 M45.42 81.88 C47.1 79.95, 48.78 78.02, 52.64 73.58 M-0.16 79.44 C-0.16 79.44, -0.16 79.44, -0.16 79.44 M-0.16 79.44 C-0.16 79.44, -0.16 79.44, -0.16 79.44 M11.88 79.31 C7.62 75.6, 3.36 71.9, -0.19 68.81 M11.88 79.31 C9.44 77.18, 6.99 75.05, -0.19 68.81 M24.68 79.83 C17.52 73.61, 10.36 67.39, -0.23 58.18 M24.68 79.83 C15.85 72.15, 7.02 64.48, -0.23 58.18 M36.72 79.7 C28.05 72.16, 19.38 64.62, -0.26 47.55 M36.72 79.7 C24.56 69.12, 12.39 58.55, -0.26 47.55 M48.76 79.56 C36.2 68.64, 23.63 57.72, -0.29 36.92 M48.76 79.56 C30.33 63.54, 11.9 47.52, -0.29 36.92 M55.52 74.84 C38.07 59.67, 20.63 44.51, -0.33 26.29 M55.52 74.84 C41.38 62.54, 27.23 50.25, -0.33 26.29 M56.24 64.86 C36.5 47.71, 16.76 30.55, -0.36 15.66 M56.24 64.86 C36.97 48.11, 17.7 31.36, -0.36 15.66 M56.21 54.23 C34.78 35.61, 13.35 16.98, 0.36 5.69 M56.21 54.23 C36.7 37.28, 17.19 20.32, 0.36 5.69 M56.17 43.6 C34.93 25.14, 13.7 6.68, 2.59 -2.98 M56.17 43.6 C43.43 32.53, 30.68 21.45, 2.59 -2.98 M56.14 32.97 C47.26 25.26, 38.39 17.54, 14.63 -3.11 M56.14 32.97 C42.77 21.36, 29.41 9.74, 14.63 -3.11 M56.1 22.34 C44.36 12.14, 32.62 1.93, 26.67 -3.24 M56.1 22.34 C44.67 12.41, 33.24 2.47, 26.67 -3.24 M56.07 11.71 C50.47 6.85, 44.87 1.98, 39.46 -2.72 M56.07 11.71 C52.63 8.73, 49.19 5.74, 39.46 -2.72" stroke="#868e96" stroke-width="1" fill="none"></path><path d="M0 0 C17.35 0, 34.7 0, 52.03 0 M0 0 C19.84 0, 39.69 0, 52.03 0 M52.03 0 C52.03 20.09, 52.03 40.19, 52.03 79.58 M52.03 0 C52.03 17.23, 52.03 34.46, 52.03 79.58 M52.03 79.58 C34.05 79.58, 16.07 79.58, 0 79.58 M52.03 79.58 C32.96 79.58, 13.89 79.58, 0 79.58 M0 79.58 C0 48.11, 0 16.65, 0 0 M0 79.58 C0 59.33, 0 39.08, 0 0" stroke="#c92a2a" stroke-width="2" fill="none"></path></g><g stroke-linecap="round" transform="translate(114.86205876324811 109.1700895304233) rotate(0 20.49999221023222 30.430754857547072)"><path d="M0 0 L41 0 L41 60.86 L0 60.86" stroke="none" stroke-width="0" fill="#fff"></path><path d="M0 0 C10.68 0, 21.36 0, 41 0 M0 0 C10.02 0, 20.03 0, 41 0 M41 0 C41 18.64, 41 37.29, 41 60.86 M41 0 C41 13.17, 41 26.35, 41 60.86 M41 60.86 C26.44 60.86, 11.88 60.86, 0 60.86 M41 60.86 C26.84 60.86, 12.69 60.86, 0 60.86 M0 60.86 C0 40.66, 0 20.46, 0 0 M0 60.86 C0 41.65, 0 22.43, 0 0" stroke="#c92a2a" stroke-width="2" fill="none"></path></g><g stroke-linecap="round" transform="translate(131.16374598716175 172.63621528730926) rotate(0 4.198304986317339 4.198304986317339)"><path d="M8.4 4.2 C8.4 4.44, 8.38 4.69, 8.33 4.93 C8.29 5.17, 8.23 5.41, 8.14 5.63 C8.06 5.86, 7.96 6.09, 7.83 6.3 C7.71 6.51, 7.57 6.71, 7.41 6.9 C7.26 7.08, 7.08 7.26, 6.9 7.41 C6.71 7.57, 6.51 7.71, 6.3 7.83 C6.09 7.96, 5.86 8.06, 5.63 8.14 C5.41 8.23, 5.17 8.29, 4.93 8.33 C4.69 8.38, 4.44 8.4, 4.2 8.4 C3.96 8.4, 3.71 8.38, 3.47 8.33 C3.23 8.29, 2.99 8.23, 2.76 8.14 C2.53 8.06, 2.31 7.96, 2.1 7.83 C1.89 7.71, 1.69 7.57, 1.5 7.41 C1.31 7.26, 1.14 7.08, 0.98 6.9 C0.83 6.71, 0.68 6.51, 0.56 6.3 C0.44 6.09, 0.34 5.86, 0.25 5.63 C0.17 5.41, 0.11 5.17, 0.06 4.93 C0.02 4.69, 0 4.44, 0 4.2 C0 3.96, 0.02 3.71, 0.06 3.47 C0.11 3.23, 0.17 2.99, 0.25 2.76 C0.34 2.53, 0.44 2.31, 0.56 2.1 C0.68 1.89, 0.83 1.69, 0.98 1.5 C1.14 1.31, 1.31 1.14, 1.5 0.98 C1.69 0.83, 1.89 0.68, 2.1 0.56 C2.31 0.44, 2.53 0.34, 2.76 0.25 C2.99 0.17, 3.23 0.11, 3.47 0.06 C3.71 0.02, 3.96 0, 4.2 0 C4.44 0, 4.69 0.02, 4.93 0.06 C5.17 0.11, 5.41 0.17, 5.63 0.25 C5.86 0.34, 6.09 0.44, 6.3 0.56 C6.51 0.68, 6.71 0.83, 6.9 0.98 C7.08 1.14, 7.26 1.31, 7.41 1.5 C7.57 1.69, 7.71 1.89, 7.83 2.1 C7.96 2.31, 8.06 2.53, 8.14 2.76 C8.23 2.99, 8.29 3.23, 8.33 3.47 C8.38 3.71, 8.39 4.08, 8.4 4.2 C8.41 4.32, 8.41 4.08, 8.4 4.2" stroke="none" stroke-width="0" fill="#fff"></path><path d="M8.4 4.2 C8.4 4.44, 8.38 4.69, 8.33 4.93 C8.29 5.17, 8.23 5.41, 8.14 5.63 C8.06 5.86, 7.96 6.09, 7.83 6.3 C7.71 6.51, 7.57 6.71, 7.41 6.9 C7.26 7.08, 7.08 7.26, 6.9 7.41 C6.71 7.57, 6.51 7.71, 6.3 7.83 C6.09 7.96, 5.86 8.06, 5.63 8.14 C5.41 8.23, 5.17 8.29, 4.93 8.33 C4.69 8.38, 4.44 8.4, 4.2 8.4 C3.96 8.4, 3.71 8.38, 3.47 8.33 C3.23 8.29, 2.99 8.23, 2.76 8.14 C2.53 8.06, 2.31 7.96, 2.1 7.83 C1.89 7.71, 1.69 7.57, 1.5 7.41 C1.31 7.26, 1.14 7.08, 0.98 6.9 C0.83 6.71, 0.68 6.51, 0.56 6.3 C0.44 6.09, 0.34 5.86, 0.25 5.63 C0.17 5.41, 0.11 5.17, 0.06 4.93 C0.02 4.69, 0 4.44, 0 4.2 C0 3.96, 0.02 3.71, 0.06 3.47 C0.11 3.23, 0.17 2.99, 0.25 2.76 C0.34 2.53, 0.44 2.31, 0.56 2.1 C0.68 1.89, 0.83 1.69, 0.98 1.5 C1.14 1.31, 1.31 1.14, 1.5 0.98 C1.69 0.83, 1.89 0.68, 2.1 0.56 C2.31 0.44, 2.53 0.34, 2.76 0.25 C2.99 0.17, 3.23 0.11, 3.47 0.06 C3.71 0.02, 3.96 0, 4.2 0 C4.44 0, 4.69 0.02, 4.93 0.06 C5.17 0.11, 5.41 0.17, 5.63 0.25 C5.86 0.34, 6.09 0.44, 6.3 0.56 C6.51 0.68, 6.71 0.83, 6.9 0.98 C7.08 1.14, 7.26 1.31, 7.41 1.5 C7.57 1.69, 7.71 1.89, 7.83 2.1 C7.96 2.31, 8.06 2.53, 8.14 2.76 C8.23 2.99, 8.29 3.23, 8.33 3.47 C8.38 3.71, 8.39 4.08, 8.4 4.2 C8.41 4.32, 8.41 4.08, 8.4 4.2" stroke="#c92a2a" stroke-width="2" fill="none"></path></g><g stroke-linecap="round" transform="translate(120.94557308264302 116.91742367295308) rotate(0 14.416477890835154 7.306904711193738)"><path d="M0 0 C0 0, 0 0, 0 0 M0 0 C0 0, 0 0, 0 0 M0.13 12.04 C4.14 7.43, 8.14 2.83, 10.63 -0.03 M0.13 12.04 C3.86 7.76, 7.58 3.47, 10.63 -0.03 M4.86 18.8 C9 14.04, 13.14 9.28, 21.26 -0.07 M4.86 18.8 C10.51 12.3, 16.15 5.81, 21.26 -0.07 M15.49 18.76 C21.31 12.06, 27.14 5.36, 30.58 1.41 M15.49 18.76 C19.7 13.92, 23.91 9.08, 30.58 1.41 M0.31 14.88 C0.31 14.88, 0.31 14.88, 0.31 14.88 M0.31 14.88 C0.31 14.88, 0.31 14.88, 0.31 14.88 M12.35 14.75 C9.18 11.99, 6.01 9.24, 0.28 4.25 M12.35 14.75 C8.77 11.63, 5.18 8.52, 0.28 4.25 M24.39 14.62 C19.13 10.04, 13.87 5.47, 3.26 -3.75 M24.39 14.62 C17.25 8.41, 10.11 2.2, 3.26 -3.75 M31.91 10.55 C28.42 7.52, 24.93 4.49, 15.3 -3.88 M31.91 10.55 C28.34 7.45, 24.77 4.35, 15.3 -3.88" stroke="#4c6ef588" stroke-width="1" fill="none"></path><path d="M0 0 C6.01 0, 12.03 0, 28.83 0 M0 0 C8.95 0, 17.9 0, 28.83 0 M28.83 0 C28.83 3.66, 28.83 7.32, 28.83 14.61 M28.83 0 C28.83 3.02, 28.83 6.05, 28.83 14.61 M28.83 14.61 C18.03 14.61, 7.22 14.61, 0 14.61 M28.83 14.61 C22.05 14.61, 15.26 14.61, 0 14.61 M0 14.61 C0 9.04, 0 3.46, 0 0 M0 14.61 C0 10.42, 0 6.22, 0 0" stroke="#c92a2a" stroke-width="2" fill="none"></path></g><g stroke-linecap="round" transform="translate(120.94557308264302 143.04353853347186) rotate(0 14.416477890835154 7.306904711193738)"><path d="M0 0 C0 0, 0 0, 0 0 M0 0 C0 0, 0 0, 0 0 M0.13 12.04 C3.22 8.49, 6.3 4.94, 10.63 -0.03 M0.13 12.04 C2.93 8.82, 5.73 5.6, 10.63 -0.03 M4.86 18.8 C10.65 12.14, 16.44 5.47, 21.26 -0.07 M4.86 18.8 C10.24 12.6, 15.63 6.41, 21.26 -0.07 M15.49 18.76 C18.73 15.03, 21.98 11.3, 30.58 1.41 M15.49 18.76 C21.45 11.91, 27.4 5.06, 30.58 1.41 M0.31 14.88 C0.31 14.88, 0.31 14.88, 0.31 14.88 M0.31 14.88 C0.31 14.88, 0.31 14.88, 0.31 14.88 M12.35 14.75 C9.16 11.98, 5.97 9.2, 0.28 4.25 M12.35 14.75 C8.39 11.3, 4.42 7.86, 0.28 4.25 M24.39 14.62 C19.52 10.38, 14.65 6.15, 3.26 -3.75 M24.39 14.62 C16.27 7.56, 8.15 0.5, 3.26 -3.75 M31.91 10.55 C26.39 5.75, 20.88 0.96, 15.3 -3.88 M31.91 10.55 C27.8 6.98, 23.69 3.4, 15.3 -3.88" stroke="#4c6ef588" stroke-width="1" fill="none"></path><path d="M0 0 C8.98 0, 17.96 0, 28.83 0 M0 0 C11.26 0, 22.52 0, 28.83 0 M28.83 0 C28.83 4.64, 28.83 9.28, 28.83 14.61 M28.83 0 C28.83 5.34, 28.83 10.67, 28.83 14.61 M28.83 14.61 C22.23 14.61, 15.63 14.61, 0 14.61 M28.83 14.61 C18.34 14.61, 7.86 14.61, 0 14.61 M0 14.61 C0 9.07, 0 3.53, 0 0 M0 14.61 C0 10.29, 0 5.96, 0 0" stroke="#c92a2a" stroke-width="2" fill="none"></path></g><g stroke-linecap="round" transform="translate(52.245833336543 144.16460114730864) rotate(0 21.920131487877597 17.95449899453905)"><path d="M0 0 C0 0, 0 0, 0 0 M0 0 C0 0, 0 0, 0 0 M-0.13 6.69 C1.38 5.05, 1.89 3.77, 4.25 0.07 M-0.17 6.75 C1.42 4.03, 3.08 2.29, 5.2 0.7 M0.16 12.68 C4.14 7.71, 6.73 6.54, 10.08 1.09 M-0.42 12.26 C3.52 7.75, 6.64 4.55, 11.16 0.2 M0.75 17.48 C4.53 10.39, 12.94 3.7, 13.99 -1.32 M-1.01 18.1 C4.82 13.25, 10.11 6, 16.28 -0.36 M0.08 24.16 C6.86 14.4, 13.89 8.76, 19.42 -1.87 M1.08 24.36 C6.94 16.81, 14.43 9.08, 20.55 -0.23 M1.73 29.4 C5.11 20.85, 13.69 16.25, 27.46 -0.02 M-0.37 29.58 C8.11 20.97, 16.7 11.02, 25.78 -0.29 M1.59 35.37 C13.79 22.78, 25.14 6.98, 31.41 -1.63 M0.4 35.8 C6.59 27.75, 13.38 21.49, 31.58 -0.04 M5.68 36.15 C12.28 28.02, 20.27 17.59, 37.17 1.63 M6.11 35.56 C17.17 22.35, 28.98 9.92, 37.41 -0.58 M9.32 36 C22.05 25.32, 31.35 10.61, 42.22 0.48 M11.05 36.79 C19.02 26.68, 28.83 17.8, 42.92 0.18 M17.43 35.63 C23.06 27.05, 32.2 21.63, 46.81 1.84 M16.73 35.64 C26.99 24.32, 38.62 11.15, 46.56 1.97 M22.26 34.35 C30.47 26.28, 41.08 14.06, 44.32 9.8 M20.98 35.35 C26.44 31.21, 31.58 25.67, 45.24 7.76 M27.91 34.42 C30.73 31.33, 38.94 22.51, 44.88 13.04 M25.85 37.14 C33.09 30.19, 38.66 22, 45.38 13.79 M33.29 37.25 C34.85 30.29, 39.53 26.23, 44.7 21.46 M31.97 35.09 C36.79 31.04, 39.78 26.94, 45.62 20.88 M36.89 35.92 C38.68 33.76, 43.37 29.92, 47 27.08 M36.71 36.8 C39.15 35.02, 40.89 32.51, 45.76 26.29 M42.86 35.53 C43.59 35.27, 45.4 33.66, 45.92 32.65 M42.96 35.83 C44.03 35.03, 44.75 33.92, 46.11 32.2 M0.33 36.2 C0.33 36.2, 0.33 36.2, 0.33 36.2 M0.33 36.2 C0.33 36.2, 0.33 36.2, 0.33 36.2 M6.15 36.32 C3.67 33.78, 2.85 31.91, 0.31 30.55 M5.65 35.46 C4.22 34.31, 2.78 33.13, -0.31 30.35 M13.71 35.29 C9.06 34.05, 4.09 29.46, 0.6 25.57 M11.99 36.03 C9.37 33.76, 6.75 30.46, 0.37 26.08 M16.11 36.89 C9.77 31.77, 3.89 23.94, 1.89 19.42 M18.43 34.8 C12.01 29.87, 7.04 25.34, -0.26 19 M26.21 36.84 C18.24 31.57, 13.63 24.73, 0.25 13.69 M24.8 35.66 C15.39 27.28, 4.8 19.42, 0.87 15.66 M29.89 35.53 C18.35 26.14, 6.35 16.97, -1.54 7.76 M31.71 35.86 C24.23 30.28, 16.55 23.46, -0.65 9.48 M36.66 35.94 C22.38 24.41, 9.35 14.28, 1.93 2.32 M35.95 36.42 C23.41 24.56, 12.02 14.56, -0.03 4 M44 35.68 C27.37 22.86, 9.75 9.25, -0.72 0.98 M43.8 36.9 C30.6 25.92, 17.28 13.58, 0.61 -0.72 M47.56 34.7 C37.03 27.42, 24.82 18, 5.13 0.46 M46.57 33.75 C32.93 23.33, 20.5 12.62, 6.39 -1.37 M47.25 28.72 C34.9 21.16, 27.88 11.31, 14.22 -0.31 M46.05 28.43 C34.65 17.28, 22.39 7.18, 13.15 -1.56 M47.18 21.47 C37.89 17.55, 29.17 8.5, 20.33 0.52 M45.9 22.19 C37.13 15.07, 28.14 6.21, 19.8 -0.58 M46.18 17.1 C39.92 11.05, 29.79 6.2, 26.65 0.07 M45.45 17.15 C38.96 11.48, 33.04 6.53, 24.01 -0.35 M44.52 14.31 C40.78 6.33, 36.06 3.82, 29.63 -1.75 M45.87 13.03 C40.45 8.58, 35.24 3, 31.45 -1.34 M46.82 7.08 C43.72 3.11, 39.15 1.09, 38.52 -0.5 M45.5 6.8 C44.24 5.15, 42.26 2.74, 37.54 -0.31" stroke="#15aabf" stroke-width="0.5" fill="none"></path><path d="M-0.37 1.75 C13.23 1.03, 21.85 0.76, 45.15 -0.92 M-0.78 -0.65 C10.43 0.98, 20.21 0.87, 43.47 -0.36 M43.12 0.88 C42.46 8.96, 45.45 22.23, 43.78 36.48 M43.74 0.03 C43.98 10.05, 44.38 19.27, 43.33 35.21 M45.47 36.57 C30.71 36.25, 15.43 36.67, 0.76 37.6 M43.22 35.75 C32.8 35.27, 19.81 35.95, -0.9 36.23 M-1.97 35.28 C1.43 21.48, -1.43 10.75, -1.71 -1.05 M-0.73 36.41 C-1.17 27.68, 0.37 18.82, -0.94 -0.27" stroke="#000000" stroke-width="1" fill="none"></path></g><g stroke-linecap="round" transform="translate(51.505876027204295 115.63335938242551) rotate(0 22 8.05370584277739)"><path d="M0 0 C0 0, 0 0, 0 0 M0 0 C0 0, 0 0, 0 0 M-0.91 6.12 C1.62 3.92, 2.07 3.14, 4.64 -0.22 M-0.05 6.49 C2.02 3.83, 3.66 1.66, 4.79 0.1 M-1.42 11.94 C5.3 8.45, 8.05 2.99, 11.21 0 M0.03 12.43 C2.44 8.49, 5.28 6.43, 10.52 0.67 M2.28 17.01 C5.88 10.4, 10.1 3.04, 16.77 1.83 M0.53 17.12 C6.13 11.65, 9.96 6.46, 14.73 0.6 M6.75 16.28 C10.06 12.21, 17.07 7.87, 19.76 1.59 M5.73 17.26 C12.51 11.39, 16.72 4.72, 21.11 0.82 M13.33 16.28 C13.74 13, 18.63 9.11, 25.23 -1.04 M11.94 17.58 C17.04 12.38, 20.73 6.37, 25.72 0.74 M15.87 18.77 C24.43 11.47, 28.17 5.69, 31.14 -0.17 M17.29 17.77 C22.5 11.2, 28.39 5.17, 31.05 0.01 M23.25 17.7 C26.49 9.8, 33.78 4.02, 37.47 0.08 M23.28 16.96 C26.91 12.32, 28.89 8.87, 37.52 -0.09 M28.42 18.99 C31.38 9.55, 37.83 4.93, 41.77 1.25 M28.39 16.89 C30.46 12.41, 33.99 9.3, 41.71 0.39 M31.83 16.27 C36.68 10.26, 43.46 5.71, 46.79 -0.11 M32.21 16.98 C36.02 12.22, 40.95 8.67, 46.58 0.76 M38.32 18.05 C39.7 15.92, 42.82 11.21, 46.79 8.06 M38.65 17.37 C39.8 15.19, 41.1 13.38, 45.36 7.77 M0.33 16.39 C0.33 16.39, 0.33 16.39, 0.33 16.39 M0.33 16.39 C0.33 16.39, 0.33 16.39, 0.33 16.39 M5.23 16.62 C3.75 15.35, 3.59 12.66, -0.35 11.01 M6.07 16.24 C4.07 13.94, 1.35 12.11, -0.27 10.46 M11.47 17.01 C6.84 13.54, 4.51 8.63, -0.32 5.77 M12.02 15.89 C9.75 13.39, 6.8 11.55, 1.06 5.14 M19.45 14.47 C10.69 10.24, 4.2 2.45, 0.9 0.48 M18.13 15.88 C12.5 11.96, 9.54 8.5, -1.09 0.22 M26.14 14.84 C19.36 14, 14.83 8.64, 2.72 -4.14 M23.85 16.96 C17.14 9.45, 8.71 2.44, 2.27 -2.07 M31.11 16.75 C20.52 8.89, 12.41 3.29, 10.28 -3.67 M30.47 15.76 C23.45 10.68, 16.77 4.5, 8.67 -3.6 M37.08 15.36 C32.81 9.69, 23.86 5.1, 14.74 -1.84 M36.85 16.71 C28.07 8.27, 19.65 1.81, 15.52 -2.87 M42.18 14.27 C36.05 11.9, 27.27 5.19, 22.73 -2.92 M42.47 17.03 C37.73 11.19, 31.5 7.49, 20.51 -2.16 M46.7 12.68 C40.05 6.52, 33.91 1.71, 25.5 -1.81 M46.76 13.32 C37.49 7.22, 30.56 -0.08, 27.4 -2.28 M47.32 6.67 C41.68 2.62, 37.12 0.58, 31.52 -1.39 M46.21 7.94 C42.31 3.92, 36.46 0.49, 32.96 -2.34 M46.55 3.36 C43.14 1.73, 41.37 -0.6, 38.81 -2.33 M46.02 3.52 C44.01 1.65, 41.47 -0.51, 39 -2.65" stroke="#fab005" stroke-width="0.5" fill="none"></path><path d="M-1.06 -1.47 C10.45 -2.01, 16.7 -1.47, 45.78 0.87 M0.44 0.69 C10.26 -0.56, 19.74 0.23, 43.07 0.41 M42.87 -0.25 C43.14 2.51, 44.1 6.99, 43.84 16.74 M43.49 0.75 C43.32 4.77, 43.67 8.02, 44.59 16.59 M44.14 15.63 C30.45 14.53, 15.38 17.3, -1.92 17.82 M43.41 15.23 C30.08 16.43, 16.45 15.77, 0.66 15.43 M-0.93 16.74 C1.33 10.7, 1.06 6.7, -0.32 -0.55 M-0.48 15.9 C0.13 12.92, 0.19 9.29, 0.22 -0.66" stroke="#000000" stroke-width="1" fill="none"></path></g><g transform="translate(51.97064039197153 196.19087782968938) rotate(0 58.5 10)"><text x="0" y="14" font-family="Virgil, Segoe UI Emoji" font-size="16px" fill="#c92a2a" text-anchor="start" style="white-space: pre;" direction="ltr">CTC Client #3</text></g><g stroke-linecap="round"><g transform="translate(352.3017101310438 243.4334861613737) rotate(0 46.26371379081502 -60.20855290560246)"><path d="M0.86 -0.15 C16.22 -20.35, 77.49 -100.29, 92.68 -120.26 M-0.15 -1.28 C15.07 -21.36, 76.85 -99.21, 92.08 -118.76" stroke="#1864ab" stroke-width="1" fill="none"></path></g><g transform="translate(352.3017101310438 243.4334861613737) rotate(0 46.26371379081502 -60.20855290560246)"><path d="M82.46 -89.15 C85.58 -100.02, 89.19 -111.67, 93.23 -117.01 M83.26 -89.62 C86.03 -100.37, 90.58 -112.86, 91.81 -118.34" stroke="#1864ab" stroke-width="1" fill="none"></path></g><g transform="translate(352.3017101310438 243.4334861613737) rotate(0 46.26371379081502 -60.20855290560246)"><path d="M66.33 -101.84 C75.04 -108.5, 84.15 -115.84, 93.23 -117.01 M67.13 -102.31 C75.96 -108.33, 86.66 -115.99, 91.81 -118.34" stroke="#1864ab" stroke-width="1" fill="none"></path></g></g><g stroke-linecap="round"><g transform="translate(444.3145907132921 138.4489912276955) rotate(0 -44.645484287654426 61.91833864116359)"><path d="M1.08 -1.62 C-18.17 27.13, -37.37 53.74, -90.38 125.45" stroke="#1864ab" stroke-width="1.5" fill="none" stroke-dasharray="8 9"></path></g><g transform="translate(444.3145907132921 138.4489912276955) rotate(0 -44.645484287654426 61.91833864116359)"><path d="M-80.84 95.05 C-83.43 103.42, -85.88 110.21, -89.21 123.85" stroke="#1864ab" stroke-width="1.5" fill="none"></path></g><g transform="translate(444.3145907132921 138.4489912276955) rotate(0 -44.645484287654426 61.91833864116359)"><path d="M-64.31 107.22 C-70.25 113.24, -76.04 117.58, -89.21 123.85" stroke="#1864ab" stroke-width="1.5" fill="none"></path></g></g><g stroke-linecap="round"><g transform="translate(166.14034557747073 174.8340717412715) rotate(0 50.72151251206947 35.10012675493675)"><path d="M1.33 0.77 C36.36 27.56, 76.18 55.34, 100.11 69.43" stroke="#1864ab" stroke-width="1.5" fill="none" stroke-dasharray="8 9"></path></g><g transform="translate(166.14034557747073 174.8340717412715) rotate(0 50.72151251206947 35.10012675493675)"><path d="M72.13 63.8 C80.43 65.79, 93.24 69.43, 99.24 68.4" stroke="#1864ab" stroke-width="1.5" fill="none"></path></g><g transform="translate(166.14034557747073 174.8340717412715) rotate(0 50.72151251206947 35.10012675493675)"><path d="M83.1 46.46 C87.19 54.88, 95.88 65.06, 99.24 68.4" stroke="#1864ab" stroke-width="1.5" fill="none"></path></g></g><g stroke-linecap="round"><g transform="translate(283.7402816708302 236.55827250404343) rotate(0 -57.347992424968766 -41.89480463651876)"><path d="M0.17 1.23 C-43.76 -31.95, -86.32 -60.59, -115.12 -83.46 M0.82 0.98 C-37.14 -24.19, -72.49 -50.64, -115.52 -85.02" stroke="#1864ab" stroke-width="1" fill="none"></path></g><g transform="translate(283.7402816708302 236.55827250404343) rotate(0 -57.347992424968766 -41.89480463651876)"><path d="M-86.84 -74.46 C-98.61 -80.37, -108.88 -81.01, -114.94 -83.53 M-86.18 -74.71 C-96.74 -77.46, -105.27 -80.65, -115.34 -85.09" stroke="#1864ab" stroke-width="1" fill="none"></path></g><g transform="translate(283.7402816708302 236.55827250404343) rotate(0 -57.347992424968766 -41.89480463651876)"><path d="M-99.51 -58.32 C-106.56 -70.31, -112.14 -76.92, -114.94 -83.53 M-98.85 -58.57 C-105.64 -66.4, -110.27 -74.56, -115.34 -85.09" stroke="#1864ab" stroke-width="1" fill="none"></path></g></g><g stroke-linecap="round"><g transform="translate(352.77753704555835 308.1547327784921) rotate(0 90.11049828841317 31.73736131780356)"><path d="M-1.16 -1.77 C57.76 21.94, 116.44 44.43, 181.39 63.31 M0.84 0.39 C67.17 25.19, 134.71 49.26, 180.68 65.24" stroke="#1864ab" stroke-width="1" fill="none"></path></g><g transform="translate(352.77753704555835 308.1547327784921) rotate(0 90.11049828841317 31.73736131780356)"><path d="M149.52 63.81 C159.75 64.67, 169.15 65.72, 181.49 63.37 M151.52 65.96 C161.58 65.91, 173.1 65.6, 180.78 65.3" stroke="#1864ab" stroke-width="1" fill="none"></path></g><g transform="translate(352.77753704555835 308.1547327784921) rotate(0 90.11049828841317 31.73736131780356)"><path d="M156.32 44.45 C164.15 51.58, 171.33 58.97, 181.49 63.37 M158.33 46.6 C165.93 53.73, 174.91 60.62, 180.78 65.3" stroke="#1864ab" stroke-width="1" fill="none"></path></g></g><g stroke-linecap="round"><g transform="translate(531.6908692143109 388.64749096070625) rotate(0 -92.9263940562929 -35.46617330635803)"><path d="M1.06 -1.79 C-48.32 -20.95, -99.6 -38.84, -186.91 -69.14" stroke="#1864ab" stroke-width="1.5" fill="none" stroke-dasharray="8 9"></path></g><g transform="translate(531.6908692143109 388.64749096070625) rotate(0 -92.9263940562929 -35.46617330635803)"><path d="M-155.86 -71.36 C-164.04 -71.23, -174.12 -70.96, -186.43 -69.33" stroke="#1864ab" stroke-width="1.5" fill="none"></path></g><g transform="translate(531.6908692143109 388.64749096070625) rotate(0 -92.9263940562929 -35.46617330635803)"><path d="M-162.6 -51.97 C-169.02 -56.87, -177.33 -61.68, -186.43 -69.33" stroke="#1864ab" stroke-width="1.5" fill="none"></path></g></g><g stroke-linecap="round" transform="translate(199.50067445388822 439.61471522363524) rotate(0 63.9419178660695 38.26851694988886)"><path d="M-0.82 0.52 C40.01 -0.79, 78.41 -0.32, 129.44 1.8 M0.49 -0.43 C43.29 -0.81, 87.71 -0.56, 128.03 0.07 M125.99 -1.45 C129.09 25.17, 126.83 45.55, 129.14 76.79 M127.68 -0.95 C126.29 26.01, 126.62 52.57, 127.93 76.73 M127.22 75.02 C84.68 74.92, 37.67 75.87, -0.48 75.38 M127.8 76.77 C85.83 78.38, 43.58 78.65, -0.67 77.15 M1 76.39 C-0.28 58.95, -2.43 43.65, 1.61 -0.66 M-0.93 76.75 C1.02 55.99, 0.38 36.27, -0.78 -0.27" stroke="#000000" stroke-width="1" fill="none"></path></g><g stroke-linecap="round"><g transform="translate(198.425076702993 450.3312496158791) rotate(0 64.4706362032407 0.2812563814502482)"><path d="M-0.49 0.31 C20.92 0.21, 107.84 -0.21, 129.43 -0.26 M1.45 -0.57 C22.68 -0.52, 107.63 0.82, 128.79 1.14" stroke="#000000" stroke-width="1" fill="none"></path></g></g><g stroke-linecap="round" transform="translate(203.9887099228431 443.88628502364406) rotate(0 2.5009765625 2.5009765625)"><path d="M5 2.5 C5 2.65, 4.99 2.79, 4.96 2.94 C4.94 3.08, 4.9 3.22, 4.85 3.36 C4.8 3.49, 4.74 3.63, 4.67 3.75 C4.59 3.88, 4.51 4, 4.42 4.11 C4.32 4.22, 4.22 4.32, 4.11 4.42 C4 4.51, 3.88 4.59, 3.75 4.67 C3.63 4.74, 3.49 4.8, 3.36 4.85 C3.22 4.9, 3.08 4.94, 2.94 4.96 C2.79 4.99, 2.65 5, 2.5 5 C2.36 5, 2.21 4.99, 2.07 4.96 C1.92 4.94, 1.78 4.9, 1.65 4.85 C1.51 4.8, 1.38 4.74, 1.25 4.67 C1.13 4.59, 1 4.51, 0.89 4.42 C0.78 4.32, 0.68 4.22, 0.59 4.11 C0.49 4, 0.41 3.88, 0.34 3.75 C0.26 3.63, 0.2 3.49, 0.15 3.36 C0.1 3.22, 0.06 3.08, 0.04 2.94 C0.01 2.79, 0 2.65, 0 2.5 C0 2.36, 0.01 2.21, 0.04 2.07 C0.06 1.92, 0.1 1.78, 0.15 1.65 C0.2 1.51, 0.26 1.38, 0.34 1.25 C0.41 1.13, 0.49 1, 0.59 0.89 C0.68 0.78, 0.78 0.68, 0.89 0.59 C1 0.49, 1.13 0.41, 1.25 0.34 C1.38 0.26, 1.51 0.2, 1.65 0.15 C1.78 0.1, 1.92 0.06, 2.07 0.04 C2.21 0.01, 2.36 0, 2.5 0 C2.65 0, 2.79 0.01, 2.94 0.04 C3.08 0.06, 3.22 0.1, 3.36 0.15 C3.49 0.2, 3.63 0.26, 3.75 0.34 C3.88 0.41, 4 0.49, 4.11 0.59 C4.22 0.68, 4.32 0.78, 4.42 0.89 C4.51 1, 4.59 1.13, 4.67 1.25 C4.74 1.38, 4.8 1.51, 4.85 1.65 C4.9 1.78, 4.94 1.92, 4.96 2.07 C4.99 2.21, 5 2.43, 5 2.5 C5.01 2.57, 5.01 2.43, 5 2.5" stroke="none" stroke-width="0" fill="#fa5252"></path><path d="M5 2.5 C5 2.65, 4.99 2.79, 4.96 2.94 C4.94 3.08, 4.9 3.22, 4.85 3.36 C4.8 3.49, 4.74 3.63, 4.67 3.75 C4.59 3.88, 4.51 4, 4.42 4.11 C4.32 4.22, 4.22 4.32, 4.11 4.42 C4 4.51, 3.88 4.59, 3.75 4.67 C3.63 4.74, 3.49 4.8, 3.36 4.85 C3.22 4.9, 3.08 4.94, 2.94 4.96 C2.79 4.99, 2.65 5, 2.5 5 C2.36 5, 2.21 4.99, 2.07 4.96 C1.92 4.94, 1.78 4.9, 1.65 4.85 C1.51 4.8, 1.38 4.74, 1.25 4.67 C1.13 4.59, 1 4.51, 0.89 4.42 C0.78 4.32, 0.68 4.22, 0.59 4.11 C0.49 4, 0.41 3.88, 0.34 3.75 C0.26 3.63, 0.2 3.49, 0.15 3.36 C0.1 3.22, 0.06 3.08, 0.04 2.94 C0.01 2.79, 0 2.65, 0 2.5 C0 2.36, 0.01 2.21, 0.04 2.07 C0.06 1.92, 0.1 1.78, 0.15 1.65 C0.2 1.51, 0.26 1.38, 0.34 1.25 C0.41 1.13, 0.49 1, 0.59 0.89 C0.68 0.78, 0.78 0.68, 0.89 0.59 C1 0.49, 1.13 0.41, 1.25 0.34 C1.38 0.26, 1.51 0.2, 1.65 0.15 C1.78 0.1, 1.92 0.06, 2.07 0.04 C2.21 0.01, 2.36 0, 2.5 0 C2.65 0, 2.79 0.01, 2.94 0.04 C3.08 0.06, 3.22 0.1, 3.36 0.15 C3.49 0.2, 3.63 0.26, 3.75 0.34 C3.88 0.41, 4 0.49, 4.11 0.59 C4.22 0.68, 4.32 0.78, 4.42 0.89 C4.51 1, 4.59 1.13, 4.67 1.25 C4.74 1.38, 4.8 1.51, 4.85 1.65 C4.9 1.78, 4.94 1.92, 4.96 2.07 C4.99 2.21, 5 2.43, 5 2.5 C5.01 2.57, 5.01 2.43, 5 2.5" stroke="#000000" stroke-width="1" fill="none"></path></g><g stroke-linecap="round" transform="translate(214.2514052353431 443.88628502364406) rotate(0 2.5009765625 2.5009765625)"><path d="M5 2.5 C5 2.65, 4.99 2.79, 4.96 2.94 C4.94 3.08, 4.9 3.22, 4.85 3.36 C4.8 3.49, 4.74 3.63, 4.67 3.75 C4.59 3.88, 4.51 4, 4.42 4.11 C4.32 4.22, 4.22 4.32, 4.11 4.42 C4 4.51, 3.88 4.59, 3.75 4.67 C3.63 4.74, 3.49 4.8, 3.36 4.85 C3.22 4.9, 3.08 4.94, 2.94 4.96 C2.79 4.99, 2.65 5, 2.5 5 C2.36 5, 2.21 4.99, 2.07 4.96 C1.92 4.94, 1.78 4.9, 1.65 4.85 C1.51 4.8, 1.38 4.74, 1.25 4.67 C1.13 4.59, 1 4.51, 0.89 4.42 C0.78 4.32, 0.68 4.22, 0.59 4.11 C0.49 4, 0.41 3.88, 0.34 3.75 C0.26 3.63, 0.2 3.49, 0.15 3.36 C0.1 3.22, 0.06 3.08, 0.04 2.94 C0.01 2.79, 0 2.65, 0 2.5 C0 2.36, 0.01 2.21, 0.04 2.07 C0.06 1.92, 0.1 1.78, 0.15 1.65 C0.2 1.51, 0.26 1.38, 0.34 1.25 C0.41 1.13, 0.49 1, 0.59 0.89 C0.68 0.78, 0.78 0.68, 0.89 0.59 C1 0.49, 1.13 0.41, 1.25 0.34 C1.38 0.26, 1.51 0.2, 1.65 0.15 C1.78 0.1, 1.92 0.06, 2.07 0.04 C2.21 0.01, 2.36 0, 2.5 0 C2.65 0, 2.79 0.01, 2.94 0.04 C3.08 0.06, 3.22 0.1, 3.36 0.15 C3.49 0.2, 3.63 0.26, 3.75 0.34 C3.88 0.41, 4 0.49, 4.11 0.59 C4.22 0.68, 4.32 0.78, 4.42 0.89 C4.51 1, 4.59 1.13, 4.67 1.25 C4.74 1.38, 4.8 1.51, 4.85 1.65 C4.9 1.78, 4.94 1.92, 4.96 2.07 C4.99 2.21, 5 2.43, 5 2.5 C5.01 2.57, 5.01 2.43, 5 2.5" stroke="none" stroke-width="0" fill="#fab005"></path><path d="M5 2.5 C5 2.65, 4.99 2.79, 4.96 2.94 C4.94 3.08, 4.9 3.22, 4.85 3.36 C4.8 3.49, 4.74 3.63, 4.67 3.75 C4.59 3.88, 4.51 4, 4.42 4.11 C4.32 4.22, 4.22 4.32, 4.11 4.42 C4 4.51, 3.88 4.59, 3.75 4.67 C3.63 4.74, 3.49 4.8, 3.36 4.85 C3.22 4.9, 3.08 4.94, 2.94 4.96 C2.79 4.99, 2.65 5, 2.5 5 C2.36 5, 2.21 4.99, 2.07 4.96 C1.92 4.94, 1.78 4.9, 1.65 4.85 C1.51 4.8, 1.38 4.74, 1.25 4.67 C1.13 4.59, 1 4.51, 0.89 4.42 C0.78 4.32, 0.68 4.22, 0.59 4.11 C0.49 4, 0.41 3.88, 0.34 3.75 C0.26 3.63, 0.2 3.49, 0.15 3.36 C0.1 3.22, 0.06 3.08, 0.04 2.94 C0.01 2.79, 0 2.65, 0 2.5 C0 2.36, 0.01 2.21, 0.04 2.07 C0.06 1.92, 0.1 1.78, 0.15 1.65 C0.2 1.51, 0.26 1.38, 0.34 1.25 C0.41 1.13, 0.49 1, 0.59 0.89 C0.68 0.78, 0.78 0.68, 0.89 0.59 C1 0.49, 1.13 0.41, 1.25 0.34 C1.38 0.26, 1.51 0.2, 1.65 0.15 C1.78 0.1, 1.92 0.06, 2.07 0.04 C2.21 0.01, 2.36 0, 2.5 0 C2.65 0, 2.79 0.01, 2.94 0.04 C3.08 0.06, 3.22 0.1, 3.36 0.15 C3.49 0.2, 3.63 0.26, 3.75 0.34 C3.88 0.41, 4 0.49, 4.11 0.59 C4.22 0.68, 4.32 0.78, 4.42 0.89 C4.51 1, 4.59 1.13, 4.67 1.25 C4.74 1.38, 4.8 1.51, 4.85 1.65 C4.9 1.78, 4.94 1.92, 4.96 2.07 C4.99 2.21, 5 2.43, 5 2.5 C5.01 2.57, 5.01 2.43, 5 2.5" stroke="#000000" stroke-width="1" fill="none"></path></g><g stroke-linecap="round" transform="translate(224.9648217016893 444.33700617749025) rotate(0 2.5009765625 2.5009765625)"><path d="M5 2.5 C5 2.65, 4.99 2.79, 4.96 2.94 C4.94 3.08, 4.9 3.22, 4.85 3.36 C4.8 3.49, 4.74 3.63, 4.67 3.75 C4.59 3.88, 4.51 4, 4.42 4.11 C4.32 4.22, 4.22 4.32, 4.11 4.42 C4 4.51, 3.88 4.59, 3.75 4.67 C3.63 4.74, 3.49 4.8, 3.36 4.85 C3.22 4.9, 3.08 4.94, 2.94 4.96 C2.79 4.99, 2.65 5, 2.5 5 C2.36 5, 2.21 4.99, 2.07 4.96 C1.92 4.94, 1.78 4.9, 1.65 4.85 C1.51 4.8, 1.38 4.74, 1.25 4.67 C1.13 4.59, 1 4.51, 0.89 4.42 C0.78 4.32, 0.68 4.22, 0.59 4.11 C0.49 4, 0.41 3.88, 0.34 3.75 C0.26 3.63, 0.2 3.49, 0.15 3.36 C0.1 3.22, 0.06 3.08, 0.04 2.94 C0.01 2.79, 0 2.65, 0 2.5 C0 2.36, 0.01 2.21, 0.04 2.07 C0.06 1.92, 0.1 1.78, 0.15 1.65 C0.2 1.51, 0.26 1.38, 0.34 1.25 C0.41 1.13, 0.49 1, 0.59 0.89 C0.68 0.78, 0.78 0.68, 0.89 0.59 C1 0.49, 1.13 0.41, 1.25 0.34 C1.38 0.26, 1.51 0.2, 1.65 0.15 C1.78 0.1, 1.92 0.06, 2.07 0.04 C2.21 0.01, 2.36 0, 2.5 0 C2.65 0, 2.79 0.01, 2.94 0.04 C3.08 0.06, 3.22 0.1, 3.36 0.15 C3.49 0.2, 3.63 0.26, 3.75 0.34 C3.88 0.41, 4 0.49, 4.11 0.59 C4.22 0.68, 4.32 0.78, 4.42 0.89 C4.51 1, 4.59 1.13, 4.67 1.25 C4.74 1.38, 4.8 1.51, 4.85 1.65 C4.9 1.78, 4.94 1.92, 4.96 2.07 C4.99 2.21, 5 2.43, 5 2.5 C5.01 2.57, 5.01 2.43, 5 2.5" stroke="none" stroke-width="0" fill="#40c057"></path><path d="M5 2.5 C5 2.65, 4.99 2.79, 4.96 2.94 C4.94 3.08, 4.9 3.22, 4.85 3.36 C4.8 3.49, 4.74 3.63, 4.67 3.75 C4.59 3.88, 4.51 4, 4.42 4.11 C4.32 4.22, 4.22 4.32, 4.11 4.42 C4 4.51, 3.88 4.59, 3.75 4.67 C3.63 4.74, 3.49 4.8, 3.36 4.85 C3.22 4.9, 3.08 4.94, 2.94 4.96 C2.79 4.99, 2.65 5, 2.5 5 C2.36 5, 2.21 4.99, 2.07 4.96 C1.92 4.94, 1.78 4.9, 1.65 4.85 C1.51 4.8, 1.38 4.74, 1.25 4.67 C1.13 4.59, 1 4.51, 0.89 4.42 C0.78 4.32, 0.68 4.22, 0.59 4.11 C0.49 4, 0.41 3.88, 0.34 3.75 C0.26 3.63, 0.2 3.49, 0.15 3.36 C0.1 3.22, 0.06 3.08, 0.04 2.94 C0.01 2.79, 0 2.65, 0 2.5 C0 2.36, 0.01 2.21, 0.04 2.07 C0.06 1.92, 0.1 1.78, 0.15 1.65 C0.2 1.51, 0.26 1.38, 0.34 1.25 C0.41 1.13, 0.49 1, 0.59 0.89 C0.68 0.78, 0.78 0.68, 0.89 0.59 C1 0.49, 1.13 0.41, 1.25 0.34 C1.38 0.26, 1.51 0.2, 1.65 0.15 C1.78 0.1, 1.92 0.06, 2.07 0.04 C2.21 0.01, 2.36 0, 2.5 0 C2.65 0, 2.79 0.01, 2.94 0.04 C3.08 0.06, 3.22 0.1, 3.36 0.15 C3.49 0.2, 3.63 0.26, 3.75 0.34 C3.88 0.41, 4 0.49, 4.11 0.59 C4.22 0.68, 4.32 0.78, 4.42 0.89 C4.51 1, 4.59 1.13, 4.67 1.25 C4.74 1.38, 4.8 1.51, 4.85 1.65 C4.9 1.78, 4.94 1.92, 4.96 2.07 C4.99 2.21, 5 2.43, 5 2.5 C5.01 2.57, 5.01 2.43, 5 2.5" stroke="#000000" stroke-width="1" fill="none"></path></g><g stroke-opacity="0.9" fill-opacity="0.9" stroke-linecap="round" transform="translate(240.9918826913165 460.3893750555061) rotate(0 21.360101269687902 21.360101269687902)"><path d="M26.96 1.49 C31.33 2.45, 36.85 6.4, 39.31 10.02 C41.78 13.65, 42.4 18.57, 41.74 23.22 C41.07 27.87, 38.62 34.75, 35.32 37.93 C32.02 41.11, 26.47 42.09, 21.94 42.3 C17.41 42.52, 11.87 41.91, 8.14 39.23 C4.42 36.54, 0.38 30.9, -0.42 26.17 C-1.23 21.44, 0.98 15.02, 3.3 10.86 C5.61 6.7, 9.2 2.79, 13.44 1.2 C17.69 -0.38, 25.79 1.23, 28.77 1.36 C31.74 1.48, 31.38 1.53, 31.31 1.94 M28.1 -0.05 C32.02 1.18, 37.14 5.54, 39.55 9.64 C41.96 13.74, 43.43 19.9, 42.56 24.55 C41.68 29.2, 37.93 34.75, 34.29 37.54 C30.65 40.33, 25.27 41.02, 20.73 41.3 C16.19 41.58, 10.25 42.01, 7.05 39.23 C3.85 36.45, 2.45 29.22, 1.53 24.63 C0.6 20.04, -0.52 15.49, 1.49 11.69 C3.5 7.89, 9.13 3.67, 13.61 1.81 C18.09 -0.05, 26.14 0.38, 28.35 0.51 C30.56 0.63, 26.99 1.86, 26.89 2.55" stroke="none" stroke-width="0" fill="#04aaf7"></path><path d="M29.98 1.59 C34.04 2.84, 38.83 7.07, 40.75 10.99 C42.68 14.9, 42.63 20.63, 41.52 25.08 C40.42 29.53, 37.62 34.74, 34.14 37.69 C30.66 40.64, 25.18 42.75, 20.66 42.77 C16.14 42.79, 10.57 41.03, 7.03 37.79 C3.49 34.54, 0.15 27.86, -0.59 23.29 C-1.33 18.71, -0.16 14.16, 2.57 10.32 C5.31 6.49, 10.93 1.36, 15.81 0.25 C20.69 -0.86, 28.69 2.76, 31.85 3.66 C35.02 4.56, 35.05 5.43, 34.81 5.63 M19.02 -0.86 C23.63 -1.31, 29.97 0.91, 33.83 3.77 C37.7 6.62, 41.03 11.99, 42.21 16.29 C43.39 20.59, 42.92 25.7, 40.91 29.56 C38.9 33.42, 34.09 37.51, 30.16 39.45 C26.22 41.4, 21.74 42.16, 17.3 41.21 C12.87 40.25, 6.48 37.43, 3.54 33.71 C0.61 30, -0.79 23.69, -0.31 18.93 C0.18 14.17, 2.99 8.31, 6.46 5.15 C9.93 1.99, 18.32 0.79, 20.51 -0.02 C22.7 -0.83, 19.6 0.05, 19.6 0.3" stroke="#000000" stroke-width="1" fill="none"></path></g><g stroke-linecap="round"><g transform="translate(268.070046753292 476.6137271199635) rotate(0 -3.4669568227483296 6.47986074456071)" fill-rule="evenodd"><path d="M0 0 L-1.83 -0.41 L-7.57 -6.27 L-9.75 -6.1 L-11.36 -4.35 L-12.61 2.37 L-11.27 6.74 L-17.42 8.89 L-18 11.42 L-17.2 13.64 L-15.01 14.04 L-12.38 13.35 L-8.7 9.48 L-3.62 17.87 L-1.49 19.38 L-0.42 18.17 L-3.78 4.8 L-1.52 3.64 L1.39 4.35 L3.16 5.87 L6.21 6.29 L9.24 5.87 L10.81 3.22 L10.8 0.63 L4.22 1.11 L5.49 -5.76 L4.23 -6.26 L2.47 -5.35 L-0.24 -0.92 L0 0" stroke="none" stroke-width="0" fill="#40c057" fill-rule="evenodd"></path><path d="M0 0 C-0.31 -0.07, -0.57 0.63, -1.83 -0.41 C-3.09 -1.46, -5.98 -5.62, -7.57 -6.27 C-9.16 -6.93, -10.52 -5.79, -11.36 -4.35 C-12.2 -2.91, -12.63 0.53, -12.61 2.37 C-12.6 4.22, -10.47 5.65, -11.27 6.74 C-12.07 7.83, -16.44 7.74, -17.42 8.89 C-18.41 10.04, -18.04 12.9, -17.2 13.64 C-16.36 14.39, -13.8 14.04, -12.38 13.35 C-10.96 12.66, -10.16 8.72, -8.7 9.48 C-7.24 10.23, -5 16.42, -3.62 17.87 C-2.24 19.32, -0.39 20.35, -0.42 18.17 C-0.44 15.99, -4.08 7.1, -3.78 4.8 C-3.48 2.5, 0.23 4.17, 1.39 4.35 C2.54 4.53, 1.85 5.61, 3.16 5.87 C4.47 6.12, 7.96 6.74, 9.24 5.87 C10.51 5, 11.64 1.43, 10.8 0.63 C9.97 -0.16, 5.11 2.18, 4.22 1.11 C3.34 0.04, 5.78 -4.68, 5.49 -5.76 C5.19 -6.84, 3.43 -6.15, 2.47 -5.35 C1.52 -4.54, 0.17 -1.81, -0.24 -0.92 C-0.65 -0.03, -0.04 -0.15, 0 0 M0 0 C-0.31 -0.07, -0.57 0.63, -1.83 -0.41 C-3.09 -1.46, -5.98 -5.62, -7.57 -6.27 C-9.16 -6.93, -10.52 -5.79, -11.36 -4.35 C-12.2 -2.91, -12.63 0.53, -12.61 2.37 C-12.6 4.22, -10.47 5.65, -11.27 6.74 C-12.07 7.83, -16.44 7.74, -17.42 8.89 C-18.41 10.04, -18.04 12.9, -17.2 13.64 C-16.36 14.39, -13.8 14.04, -12.38 13.35 C-10.96 12.66, -10.16 8.72, -8.7 9.48 C-7.24 10.23, -5 16.42, -3.62 17.87 C-2.24 19.32, -0.39 20.35, -0.42 18.17 C-0.44 15.99, -4.08 7.1, -3.78 4.8 C-3.48 2.5, 0.23 4.17, 1.39 4.35 C2.54 4.53, 1.85 5.61, 3.16 5.87 C4.47 6.12, 7.96 6.74, 9.24 5.87 C10.51 5, 11.64 1.43, 10.8 0.63 C9.97 -0.16, 5.11 2.18, 4.22 1.11 C3.34 0.04, 5.78 -4.68, 5.49 -5.76 C5.19 -6.84, 3.43 -6.15, 2.47 -5.35 C1.52 -4.54, 0.17 -1.81, -0.24 -0.92 C-0.65 -0.03, -0.04 -0.15, 0 0" stroke="#087f5b" stroke-width="1" fill="none"></path></g></g><g stroke-linecap="round"><g stroke-opacity="0.9" fill-opacity="0.9" transform="translate(242.05094516534405 481.352248618687) rotate(0 21.29357920418522 -0.03533858787807276)"><path d="M0.93 1.08 C8 1.18, 35.76 0.71, 42.62 0.63 M-0.04 0.6 C6.9 0.35, 35.06 -0.82, 41.95 -1.17" stroke="#000000" stroke-width="1" fill="none"></path></g></g><g stroke-linecap="round"><g stroke-opacity="0.9" fill-opacity="0.9" transform="translate(247.1462741951184 465.91771969172066) rotate(0 14.659303301924297 2.6275724513134264)"><path d="M0 0 C0.13 0.38, 0.09 1.58, 0.77 2.28 C1.46 2.97, 2.81 3.68, 4.1 4.19 C5.4 4.7, 6.64 5.13, 8.54 5.34 C10.43 5.55, 12.97 5.55, 15.48 5.45 C17.99 5.34, 21.44 5.28, 23.58 4.71 C25.72 4.14, 27.36 2.86, 28.32 2.03 C29.27 1.2, 29.15 0.12, 29.32 -0.26 M0 0 C0.13 0.38, 0.09 1.58, 0.77 2.28 C1.46 2.97, 2.81 3.68, 4.1 4.19 C5.4 4.7, 6.64 5.13, 8.54 5.34 C10.43 5.55, 12.97 5.55, 15.48 5.45 C17.99 5.34, 21.44 5.28, 23.58 4.71 C25.72 4.14, 27.36 2.86, 28.32 2.03 C29.27 1.2, 29.15 0.12, 29.32 -0.26" stroke="#000000" stroke-width="1" fill="none"></path></g></g><g stroke-opacity="0.9" fill-opacity="0.9" stroke-linecap="round" transform="translate(255.22019011903785 459.0068454259134) rotate(0 7.764217176558077 22.41115194065469)"><path d="M7.04 -0.81 C8.49 -1.13, 11.03 1.43, 12.45 4.66 C13.87 7.88, 15.21 13.63, 15.55 18.55 C15.9 23.48, 15.52 30.21, 14.53 34.21 C13.55 38.2, 11.34 40.9, 9.65 42.51 C7.96 44.12, 5.67 45.45, 4.4 43.85 C3.12 42.25, 2.8 37, 2 32.89 C1.21 28.77, -0.51 23.71, -0.36 19.18 C-0.21 14.65, 1.38 8.78, 2.89 5.68 C4.4 2.58, 7.37 1.26, 8.71 0.6 C10.05 -0.05, 10.98 1.42, 10.92 1.76 M5.6 1.9 C7 0.08, 9.27 -0.44, 10.68 1.01 C12.1 2.46, 13.11 6.43, 14.09 10.6 C15.07 14.77, 16.88 21.17, 16.55 26.04 C16.22 30.91, 13.66 36.84, 12.1 39.82 C10.54 42.81, 8.7 44.28, 7.19 43.95 C5.68 43.62, 3.99 40.93, 3.03 37.86 C2.06 34.8, 1.65 30.14, 1.39 25.57 C1.14 21, 0.67 14.64, 1.51 10.45 C2.34 6.25, 5.51 2.04, 6.4 0.39 C7.29 -1.25, 6.84 0.32, 6.85 0.57" stroke="#000000" stroke-width="1" fill="none"></path></g><g stroke-linecap="round"><g stroke-opacity="0.9" fill-opacity="0.9" transform="translate(248.6622257047443 497.65481175016146) rotate(0 14.659303301924297 -2.7126223203275686)"><path d="M0 0 C0.68 -0.72, 2.68 -3.4, 4.1 -4.32 C5.53 -5.24, 6.64 -5.3, 8.54 -5.52 C10.43 -5.73, 12.97 -5.73, 15.48 -5.63 C17.99 -5.52, 21.44 -5.45, 23.58 -4.86 C25.72 -4.28, 27.36 -2.95, 28.32 -2.1 C29.27 -1.24, 29.15 -0.12, 29.32 0.27 M0 0 C0.68 -0.72, 2.68 -3.4, 4.1 -4.32 C5.53 -5.24, 6.64 -5.3, 8.54 -5.52 C10.43 -5.73, 12.97 -5.73, 15.48 -5.63 C17.99 -5.52, 21.44 -5.45, 23.58 -4.86 C25.72 -4.28, 27.36 -2.95, 28.32 -2.1 C29.27 -1.24, 29.15 -0.12, 29.32 0.27" stroke="#000000" stroke-width="1" fill="none"></path></g></g><g stroke-linecap="round"><g transform="translate(290.572692881414 320.6059308716898) rotate(0 -10.832799149974676 53.16910570479433)"><path d="M-0.92 -1.15 C-5.54 35.01, -13.19 65.59, -22.15 106.18 M0.48 0.53 C-4.79 23.64, -8.11 49.21, -21.56 107.49" stroke="#1864ab" stroke-width="1" fill="none"></path></g><g transform="translate(290.572692881414 320.6059308716898) rotate(0 -10.832799149974676 53.16910570479433)"><path d="M-26.49 76.61 C-22.94 88.83, -22.71 95.41, -21.97 105.49 M-25.09 78.29 C-25.2 83.7, -22.71 91.58, -21.38 106.79" stroke="#1864ab" stroke-width="1" fill="none"></path></g><g transform="translate(290.572692881414 320.6059308716898) rotate(0 -10.832799149974676 53.16910570479433)"><path d="M-6.44 80.98 C-9 91.82, -14.91 97.06, -21.97 105.49 M-5.04 82.66 C-9.71 87.1, -11.74 93.99, -21.38 106.79" stroke="#1864ab" stroke-width="1" fill="none"></path></g></g><g transform="translate(189.67515051032296 529.1340845075364) rotate(0 112.5 30)"><text x="0" y="14" font-family="Virgil, Segoe UI Emoji" font-size="16px" fill="#1864ab" text-anchor="start" style="white-space: pre;" direction="ltr">Any other thing that wants </text><text x="0" y="34" font-family="Virgil, Segoe UI Emoji" font-size="16px" fill="#1864ab" text-anchor="start" style="white-space: pre;" direction="ltr">to access the data.</text><text x="0" y="54" font-family="Virgil, Segoe UI Emoji" font-size="16px" fill="#1864ab" text-anchor="start" style="white-space: pre;" direction="ltr">Like Dashboard site</text></g><g stroke-linecap="round" transform="translate(10 10) rotate(0 353.89539668514317 320.28905087589493)"><path d="M0.59 0.03 C150.24 2.72, 300.34 2.07, 708.29 0.23 M708.34 0.65 C707.76 241.17, 706.66 482.82, 708.07 640.03 M707.93 640.32 C546.22 637.82, 384.05 639.18, 0.34 640.63 M0.56 640.91 C0.44 412.98, 1.05 185.25, 0.78 0.64" stroke="#1864ab" stroke-width="1.5" fill="none" stroke-dasharray="8 9"></path></g></svg>